<svg width="19" height="20" viewBox="0 0 19 20" fill="none" xmlns="http://www.w3.org/2000/svg">
<path fill-rule="evenodd" clip-rule="evenodd" d="M1.44351 1.61496L18.4141 18.5855L16.9999 19.9997L0.0292969 3.02918L1.44351 1.61496Z" fill="black"/>
<path d="M1.04119 16.6994C1.15119 17.6394 1.68119 19.9994 3.00119 19.9994C4.28816 19.9994 5.59474 19.0585 6.59103 18.3411L6.62119 18.3194C8.26269 17.1195 9.80135 15.7848 11.2212 14.3294C11.7246 13.8528 12.2148 13.3633 12.6913 12.8614L8.16199 8.33207C7.61732 8.19148 7.06204 8.09355 6.50119 8.03937C5.04119 7.89937 3.00119 8.13937 3.00119 9.99937C4.28119 9.99937 7.41119 10.0294 7.85119 11.7494C7.88885 11.9551 7.87255 12.167 7.80388 12.3646C7.73522 12.5621 7.61654 12.7384 7.45941 12.8764C7.30228 13.0144 7.11207 13.1093 6.90733 13.1519C6.70258 13.1945 6.49031 13.1833 6.29119 13.1194C5.92255 13.0359 5.58173 12.8968 5.24476 12.7593C4.61277 12.5013 3.9943 12.2489 3.23119 12.3794C2.80573 12.464 2.4096 12.6578 2.08174 12.9418C1.75387 13.2259 1.50555 13.5903 1.36119 13.9994C1.03272 14.859 0.922766 15.7868 1.04119 16.6994Z" fill="black"/>
<path d="M8.84058 6.18223L7.08669 4.42834C7.73419 3.81418 8.82707 3.72706 9.89119 3.91937C10.7483 4.08795 11.5836 4.35296 12.3812 4.70937C12.4857 4.75444 12.5943 4.8079 12.7059 4.86278C13.139 5.07585 13.6159 5.31045 14.0612 5.15937C15.5012 4.71937 14.0012 3.17937 13.3612 2.80937C12.912 2.56151 12.4355 2.36686 11.9412 2.22937C11.8281 2.19587 11.7097 2.17201 11.5978 2.14944C11.1752 2.06424 10.8438 1.99744 11.2312 1.49937C11.9974 0.823388 12.948 0.391609 13.9612 0.259375C15.8512 -0.180626 18.4612 -0.260626 18.9212 2.11937C19.0745 3.37592 18.773 4.64584 18.0712 5.69937C16.8957 7.71009 15.5436 9.60895 14.0324 11.3741L11.3807 8.72237C11.5501 8.40176 11.5186 7.96239 11.3112 7.59937C10.8302 6.78118 9.86025 6.37863 8.84058 6.18223Z" fill="black"/>
</svg>
