<svg width="18" height="18" viewBox="0 0 18 18" fill="none" xmlns="http://www.w3.org/2000/svg">
<path d="M9 1.5C11.17 1.5 11.58 2.07 12.5 3.32C12.88 3.85 13.32 4.44 13.94 5.06C14.43 5.55 14.86 5.93 15.21 6.24C16.3 7.19 16.5 7.36 16.5 9C16.5 11.93 16.5 12.38 14.94 13.94C13 15.86 12.38 16.5 10 16.5C8.88 16.5 8.5 16.18 7.89 15.69C7.27 15.19 6.43 14.5 5 14.5C1.96 14.5 1.5 11.05 1.5 9C1.5 7.65 2 5.91 3.47 5.42C5.25 4.83 6.2 3.71 6.96 2.81C7.75 1.88 8.11 1.5 9 1.5ZM9 0C6 0 6 3 3 4C0.88 4.71 0 7 0 9C0 12 1 16 5 16C7 16 7 18 10 18C13 18 14 17 16 15C18 13 18 12 18 9C18 6 17 6 15 4C13 2 13 0 9 0ZM9 5C6.79 5 5 6.79 5 9C5 11.21 6.79 13 9 13C11.21 13 13 11.21 13 9C13 6.79 11.21 5 9 5ZM9 7C7.9 7 7 7.9 7 9H6C6 7.35 7.35 6 9 6V7Z" fill="black"/>
</svg>
