<svg width="20" height="20" viewBox="0 0 20 20" fill="none" xmlns="http://www.w3.org/2000/svg">
<path d="M20 13.9998V1.99976C20 1.46932 19.7893 0.960615 19.4142 0.585542C19.0391 0.210469 18.5304 -0.000244141 18 -0.000244141H6C5.46957 -0.000244141 4.96086 0.210469 4.58579 0.585542C4.21071 0.960615 4 1.46932 4 1.99976V13.9998C4 14.5302 4.21071 15.0389 4.58579 15.414C4.96086 15.789 5.46957 15.9998 6 15.9998H18C18.5304 15.9998 19.0391 15.789 19.4142 15.414C19.7893 15.0389 20 14.5302 20 13.9998ZM9 9.99976L11.03 12.7098L14 8.99976L18 13.9998H6M0 3.99976V17.9998C0 18.5302 0.210714 19.0389 0.585786 19.414C0.960859 19.789 1.46957 19.9998 2 19.9998H16V17.9998H2V3.99976" fill="black"/>
</svg>
