<svg width="15" height="20" viewBox="0 0 15 20" fill="none" xmlns="http://www.w3.org/2000/svg">
<path d="M7.9004 0C4.0004 0 0.9004 3.4 1.0004 7.3C1.1004 9.9 2.6004 12.1 4.7004 13.2C6.1004 13.9 7.0004 15.3 7.0004 16.8V17C7.0004 18.7 8.3004 20 10.0004 20C14.0004 20 15.0004 15 15.0004 7C15.0004 7 15.0004 0 7.9004 0ZM10.0004 18C9.4004 18 9.0004 17.6 9.0004 17V16.8C9.0004 14.6 7.7004 12.5 5.7004 11.4C4.1004 10.6 3.1004 9 3.0004 7.2C3.0004 5.9 3.5004 4.5 4.4004 3.5C5.3004 2.5 6.6004 2 7.8004 2C12.7004 2 13.0004 6.2 13.0004 7C13.0004 16.9 11.3004 18 10.0004 18ZM11.8004 5.6L4.3004 8.3C4.1004 8 4.0004 7.6 4.0004 7.1C4.0004 6.4 4.2004 5.8 4.5004 5.1L9.7004 3.2C10.9004 3.8 11.5004 4.7 11.8004 5.6ZM8.9004 13.1L11.7004 12.1C11.6004 13.6 11.3004 14.7 11.1004 15.4L9.8004 15.9C9.8004 14.9 9.5004 14 8.9004 13.1ZM12.0004 7.2C12.0004 8.4 12.0004 9.5 11.9004 10.4L7.9004 11.9C7.4004 11.4 6.8004 10.9 6.1004 10.6C5.7004 10.4 5.3004 10.1 5.0004 9.8L12.0004 7.2Z" fill="black"/>
</svg>
