<svg width="16" height="16" viewBox="0 0 16 16" fill="none" xmlns="http://www.w3.org/2000/svg">
<path fill-rule="evenodd" clip-rule="evenodd" d="M8 1.37143C4.33914 1.37143 1.37143 4.33914 1.37143 8C1.37143 11.6609 4.33914 14.6286 8 14.6286C11.6609 14.6286 14.6286 11.6609 14.6286 8C14.6286 4.33914 11.6609 1.37143 8 1.37143ZM0 8C0 3.58172 3.58172 0 8 0C12.4183 0 16 3.58172 16 8C16 12.4183 12.4183 16 8 16C3.58172 16 0 12.4183 0 8Z" fill="#FF385C"/>
<path fill-rule="evenodd" clip-rule="evenodd" d="M6.7034 3.06879C6.24268 4.29738 5.94369 6.04067 5.94369 8C5.94369 9.95933 6.24268 11.7026 6.7034 12.9312C6.93471 13.548 7.1936 13.9996 7.44629 14.2846C7.69968 14.5704 7.88865 14.6286 8.00084 14.6286C8.11302 14.6286 8.30199 14.5704 8.55539 14.2846C8.80808 13.9996 9.06697 13.548 9.29828 12.9312C9.759 11.7026 10.058 9.95933 10.058 8C10.058 6.04067 9.759 4.29738 9.29828 3.06879C9.06697 2.45196 8.80808 2.00042 8.55539 1.71541C8.30199 1.42961 8.11302 1.37143 8.00084 1.37143C7.88865 1.37143 7.69968 1.42961 7.44629 1.71541C7.1936 2.00042 6.93471 2.45196 6.7034 3.06879ZM6.4201 0.8056C6.82301 0.351162 7.3556 0 8.00084 0C8.64607 0 9.17867 0.351162 9.58157 0.8056C9.98518 1.26084 10.3173 1.88045 10.5824 2.58725C11.1144 4.00591 11.4294 5.91976 11.4294 8C11.4294 10.0802 11.1144 11.9941 10.5824 13.4128C10.3173 14.1195 9.98518 14.7392 9.58157 15.1944C9.17867 15.6488 8.64607 16 8.00084 16C7.3556 16 6.82301 15.6488 6.4201 15.1944C6.01649 14.7392 5.68434 14.1195 5.41929 13.4128C4.88729 11.9941 4.57227 10.0802 4.57227 8C4.57227 5.91976 4.88729 4.00591 5.41929 2.58725C5.68434 1.88045 6.01649 1.26084 6.4201 0.8056Z" fill="#FF385C"/>
<path fill-rule="evenodd" clip-rule="evenodd" d="M15.3141 8.9144H0.685547V7.54297H15.3141V8.9144Z" fill="#FF385C"/>
</svg>
