<svg width="21" height="21" viewBox="0 0 21 21" fill="none" xmlns="http://www.w3.org/2000/svg">
<path d="M14.7096 2C15.5396 2 16.3296 2.22 16.9996 2.66C18.1396 3.4 18.8396 4.53 18.9996 5.84C19.1096 7.13 18.6596 8.4 17.7496 9.31C17.0496 10 16.1596 10.44 15.1796 10.54C13.2696 10.74 11.5896 11.5 10.3396 12.77C10.1296 12.97 9.89957 13 9.76957 13C9.64957 13 9.41957 12.97 9.20957 12.77L8.21957 11.78C8.03957 11.6 7.99957 11.39 7.99957 11.25C7.99957 11 8.10957 10.78 8.31957 10.57C9.52957 9.35 10.2696 7.73 10.4496 5.87C10.5796 4.54 11.2896 3.4 12.4496 2.65C13.1096 2.22 13.8896 2 14.7096 2ZM14.7096 0C13.5396 0 12.3696 0.32 11.3596 0.97C9.59957 2.1 8.62957 3.86 8.45957 5.68C8.32957 7 7.82957 8.23 6.90957 9.15L6.87957 9.18C5.71957 10.34 5.71957 12.11 6.80957 13.19L7.79957 14.18C8.34957 14.73 9.05957 15 9.76957 15C10.4796 15 11.1996 14.73 11.7496 14.18C12.7196 13.21 13.9996 12.68 15.3896 12.53C16.7596 12.38 18.0996 11.78 19.1596 10.73C21.9296 7.96 21.5696 3.26 18.0896 1C17.0796 0.33 15.8996 0 14.7096 0ZM5.25957 17.86C5.52957 18.42 5.43957 19.1 4.96957 19.56C4.38957 20.15 3.43957 20.15 2.84957 19.56C2.57957 19.29 2.43957 18.94 2.41957 18.58C2.05957 18.56 1.70957 18.42 1.43957 18.15C0.84957 17.56 0.84957 16.61 1.43957 16.03C1.89957 15.57 2.58957 15.47 3.13957 15.74L5.61957 13.31C5.75957 13.5 5.91957 13.72 6.09957 13.9L7.08957 14.89C7.29957 15.09 7.49957 15.26 7.75957 15.41L5.25957 17.86Z" fill="black"/>
</svg>
