<svg width="18" height="19" viewBox="0 0 18 19" fill="none" xmlns="http://www.w3.org/2000/svg">
<path fill-rule="evenodd" clip-rule="evenodd" d="M1.41429 1.58569L17.4143 17.5857L16.0001 18.9999L8.06563e-05 2.99991L1.41429 1.58569Z" fill="black"/>
<path d="M12.488 3.30369C11.5764 2.06504 11.1605 1.5 9 1.5C8.11 1.5 7.75 1.88 6.96 2.81C6.74656 3.06276 6.51812 3.33288 6.26053 3.60373L5.19948 2.54269C5.41704 2.3123 5.61729 2.07591 5.81336 1.84447C6.63099 0.879281 7.37586 0 9 0C11.9282 0 12.7128 1.0718 13.7077 2.43078C14.0718 2.9282 14.4641 3.4641 15 4C15.4508 4.45081 15.8508 4.8 16.2 5.10484C17.4 6.15242 18 6.67621 18 9C18 11.5368 18 12.6435 16.7908 14.134L15.7294 13.0726C16.5 12.0826 16.5 11.3161 16.5 9C16.5 7.3643 16.301 7.1909 15.2186 6.24745L15.21 6.24L15.1944 6.2262C14.8473 5.91873 14.4228 5.54275 13.94 5.06C13.32 4.44 12.88 3.85 12.5 3.32L12.488 3.30369Z" fill="black"/>
<path d="M12.8264 10.1697C12.9393 9.79971 13 9.40698 13 9C13 6.79 11.21 5 9 5C8.59302 5 8.20029 5.0607 7.83035 5.17355L8.67447 6.01767C8.78144 6.00599 8.89005 6 9 6V6.3432L12.8264 10.1697Z" fill="black"/>
<path d="M7.50426 7.67589L11.7416 11.9133C11.0258 12.5872 10.0613 13 9 13C6.79 13 5 11.21 5 9C5 7.93868 5.41282 6.97422 6.08673 6.25836L6.79715 6.96878C6.30292 7.50414 6 8.21841 6 9H7C7 8.49342 7.19087 8.02926 7.50426 7.67589Z" fill="black"/>
<path d="M4.69662 4.86825C4.33597 5.07901 3.93079 5.26726 3.47 5.42C2 5.91 1.5 7.65 1.5 9C1.5 11.05 1.96 14.5 5 14.5C6.41479 14.5 7.25207 15.1754 7.87014 15.674L7.89 15.69L7.91905 15.7133C8.51232 16.1901 8.89788 16.5 10 16.5C12.1212 16.5 12.8444 15.9916 14.3501 14.5217L15.4126 15.5842C13.7737 17.1947 12.6921 18 10 18C8.34847 18 7.60612 17.3939 6.93877 16.849C6.39388 16.4041 5.89898 16 5 16C1 16 0 12 0 9C0 7 0.88 4.71 3 4C3.21071 3.92976 3.40661 3.84966 3.5898 3.76143L4.69662 4.86825Z" fill="black"/>
</svg>
