<svg width="22" height="22" viewBox="0 0 22 22" fill="none" xmlns="http://www.w3.org/2000/svg">
<path d="M21.1104 20.46L1.39035 0.72998L0.110352 1.99998L3.30035 5.18998L2.53035 5.61998C2.21035 5.78998 2.00035 6.11998 2.00035 6.49998V15.5C2.00035 15.88 2.21035 16.21 2.53035 16.38L10.4304 20.82C10.5904 20.94 10.7904 21 11.0004 21C11.2104 21 11.4104 20.94 11.5704 20.82L16.2804 18.17L19.8404 21.73L21.1104 20.46ZM4.00035 14.91V8.20998L9.29035 11.18L10.0004 11.89V18.29L4.00035 14.91ZM12.0004 18.29V13.89L14.8204 16.7L12.0004 18.29ZM8.00035 4.81998L6.56035 3.35998L10.4304 1.17998C10.5904 1.05998 10.7904 0.99998 11.0004 0.99998C11.2104 0.99998 11.4104 1.05998 11.5704 1.17998L19.4704 5.61998C19.7903 5.78998 20.0004 6.11998 20.0004 6.49998V15.5C20.0004 15.85 19.8204 16.16 19.5304 16.33L18.0004 14.8V8.20998L13.7804 10.58L12.3104 9.10998L16.9604 6.49998L11.0004 3.14998L8.00035 4.81998Z" fill="black"/>
</svg>
