<svg width="19" height="20" viewBox="0 0 19 20" fill="none" xmlns="http://www.w3.org/2000/svg">
<path d="M12.097 14.7297C12.1391 14.8975 12.1957 15.0618 12.2665 15.2206C12.4376 15.6048 12.6875 15.9487 13.0002 16.23V18C13.0002 18.5304 12.7894 19.0391 12.4144 19.4142C12.0393 19.7893 11.5306 20 11.0002 20H9.00015C8.46972 20 7.96101 19.7893 7.58594 19.4142C7.21087 19.0391 7.00015 18.5304 7.00015 18V16.23C7.31277 15.9487 7.56274 15.6048 7.73385 15.2206C7.90496 14.8364 7.99339 14.4206 7.99339 14C7.99339 13.5794 7.90496 13.1636 7.73385 12.7794C7.56274 12.3952 7.31277 12.0513 7.00015 11.77V9.63287L0.819336 3.45206L2.23355 2.03784L18.497 18.3013L17.0828 19.7155L12.097 14.7297Z" fill="black"/>
<path d="M8.91015 2C8.75709 3.04675 8.46989 4.06617 8.05789 5.03381L13.0002 9.97607V7C12.0036 5.49404 11.3514 3.78683 11.0902 2H12.0002V0H8.00015V2H8.91015Z" fill="black"/>
</svg>
