<svg width="22" height="21" viewBox="0 0 22 21" fill="none" xmlns="http://www.w3.org/2000/svg">
<path d="M14.79 8.39C15.3194 7.72697 15.6713 6.94015 15.8127 6.10359C15.9541 5.26703 15.8803 4.40825 15.5982 3.60808C15.3162 2.80791 14.8351 2.09267 14.2004 1.5297C13.5657 0.966717 12.7981 0.574513 11.97 0.39C11.6146 0.315937 11.253 0.275757 10.89 0.27C10.014 0.271775 9.15391 0.503648 8.39574 0.942401C7.63758 1.38115 7.00798 2.01139 6.57 2.77L15.27 11.45C15.1651 11.3065 15.0516 11.1696 14.93 11.04C14.5868 10.6918 14.383 10.2298 14.3572 9.74156C14.3314 9.25328 14.4854 8.77247 14.79 8.39ZM11.89 5.27C11.6922 5.27 11.4989 5.21135 11.3344 5.10147C11.17 4.99159 11.0418 4.83541 10.9661 4.65268C10.8904 4.46996 10.8706 4.26889 10.9092 4.07491C10.9478 3.88093 11.043 3.70275 11.1829 3.56289C11.3227 3.42304 11.5009 3.3278 11.6949 3.28921C11.8889 3.25063 12.09 3.27043 12.2727 3.34612C12.4554 3.42181 12.6116 3.54998 12.7215 3.71443C12.8314 3.87888 12.89 4.07222 12.89 4.27C12.89 4.53522 12.7846 4.78957 12.5971 4.97711C12.4096 5.16464 12.1552 5.27 11.89 5.27ZM5.89 4.66L1.28 0L0 1.27L6.69 7.96C6.79 8.11 6.89 8.27 7 8.39C7.29488 8.76523 7.44587 9.23353 7.4257 9.71034C7.40552 10.1871 7.21552 10.641 6.89 10.99C6.22125 11.6971 5.75208 12.5689 5.5304 13.5165C5.30871 14.4642 5.34245 15.4537 5.62816 16.384C5.91387 17.3143 6.44132 18.1522 7.15667 18.8121C7.87203 19.4719 8.74967 19.9302 9.7 20.14C10.0907 20.2271 10.4898 20.2707 10.89 20.27C11.9357 20.2761 12.9615 19.9839 13.8471 19.4278C14.7326 18.8717 15.4413 18.0746 15.89 17.13L19.76 21L21.03 19.73M9.89 16.27C9.69222 16.27 9.49888 16.2114 9.33443 16.1015C9.16998 15.9916 9.04181 15.8354 8.96612 15.6527C8.89043 15.47 8.87063 15.2689 8.90921 15.0749C8.9478 14.8809 9.04304 14.7027 9.18289 14.5629C9.32275 14.423 9.50093 14.3278 9.69491 14.2892C9.88889 14.2506 10.09 14.2704 10.2727 14.3461C10.4554 14.4218 10.6116 14.55 10.7215 14.7144C10.8314 14.8789 10.89 15.0722 10.89 15.27C10.89 15.5352 10.7846 15.7896 10.5971 15.9771C10.4096 16.1646 10.1552 16.27 9.89 16.27ZM12.89 17.27C12.6922 17.27 12.4989 17.2114 12.3344 17.1015C12.17 16.9916 12.0418 16.8354 11.9661 16.6527C11.8904 16.47 11.8706 16.2689 11.9092 16.0749C11.9478 15.8809 12.043 15.7027 12.1829 15.5629C12.3227 15.423 12.5009 15.3278 12.6949 15.2892C12.8889 15.2506 13.09 15.2704 13.2727 15.3461C13.4554 15.4218 13.6116 15.55 13.7215 15.7144C13.8314 15.8789 13.89 16.0722 13.89 16.27C13.89 16.5352 13.7846 16.7896 13.5971 16.9771C13.4096 17.1646 13.1552 17.27 12.89 17.27ZM11.89 14.27C11.6248 14.27 11.3704 14.1646 11.1829 13.9771C10.9954 13.7896 10.89 13.5352 10.89 13.27C10.89 13.1256 10.9213 12.9828 10.9817 12.8516C11.0421 12.7204 11.1302 12.6039 11.24 12.51L12.65 13.92C12.5561 14.0298 12.4396 14.1179 12.3084 14.1783C12.1772 14.2387 12.0344 14.27 11.89 14.27Z" fill="black"/>
</svg>
