<svg width="18" height="18" viewBox="0 0 18 18" fill="none" xmlns="http://www.w3.org/2000/svg">
<path d="M8.16699 0.666504C12.307 0.666504 15.667 4.0265 15.667 8.1665C15.667 12.3065 12.307 15.6665 8.16699 15.6665C4.02699 15.6665 0.666992 12.3065 0.666992 8.1665C0.666992 4.0265 4.02699 0.666504 8.16699 0.666504ZM8.16699 13.9998C11.3899 13.9998 14.0003 11.3894 14.0003 8.1665C14.0003 4.94359 11.3899 2.33317 8.16699 2.33317C4.94408 2.33317 2.33366 4.94359 2.33366 8.1665C2.33366 11.3894 4.94408 13.9998 8.16699 13.9998ZM15.2381 14.0591L17.5951 16.4161L16.4166 17.5946L14.0596 15.2376L15.2381 14.0591Z" fill="black"/>
</svg>
