<svg width="21" height="20" viewBox="0 0 21 20" fill="none" xmlns="http://www.w3.org/2000/svg">
<path d="M2.99984 16C3.66984 17.85 5.06984 20 10.9998 20C13.3598 20 16.0698 19.93 17.9998 18C18.9998 17 20.9998 15 20.9998 9C20.9998 3 18.9998 2 16.9998 2C15.6198 2 13.9998 2 12.9998 4V4.03C12.8198 4.35638 12.544 4.61962 12.2096 4.78416C11.8751 4.94869 11.4982 5.00658 11.1298 4.95C9.99984 4.81 9.99984 4.37 9.99984 4V0H7.99984V4C7.9888 4.39697 8.05886 4.79201 8.20572 5.16098C8.35258 5.52994 8.57315 5.86507 8.85396 6.14588C9.13476 6.42668 9.4699 6.64726 9.83886 6.79412C10.2078 6.94098 10.6029 7.01103 10.9998 7C11.9998 7 11.9998 8.78 11.9998 10C11.9998 11.89 11.4998 13.26 9.99984 14C7.68984 15.15 5.38984 15 4.60984 13.47C4.52952 13.229 4.38929 13.0123 4.20231 12.8403C4.01533 12.6683 3.78773 12.5466 3.54084 12.4866C3.29396 12.4266 3.03589 12.4303 2.79084 12.4974C2.54579 12.5645 2.32178 12.6927 2.13984 12.87C1.71641 13.2648 1.39239 13.7542 1.19426 14.2982C0.996129 14.8422 0.929507 15.4253 0.999837 16V20H2.99984V16Z" fill="black"/>
</svg>
