<svg width="16" height="20" viewBox="0 0 16 20" fill="none" xmlns="http://www.w3.org/2000/svg">
<path d="M2.89 4.36C4.23 1.91 6 0 8 0C10 0 11.77 1.91 13.11 4.36C12.26 4.57 11.5 5.07 11 5.77C9.79 4.11 7.46 3.75 5.8 4.97C5.5 5.19 5.22 5.46 5 5.77C4.5 5.07 3.74 4.57 2.89 4.36ZM11 16.06L8 13.06L5 16.06L2 13.06L0.73 14.33C1.75 18.35 5.83 20.77 9.84 19.76C12.5 19.08 14.59 17 15.27 14.33L14 13.06L11 16.06ZM5 13.94L8 10.94L11 13.94L14 10.94L15.5 12.44C15.37 10.13 14.8 7.86 13.81 5.76C12.65 5.86 11.75 6.83 11.75 8H10.25C10.25 7.40326 10.0129 6.83097 9.59099 6.40901C9.16903 5.98705 8.59674 5.75 8 5.75C7.40326 5.75 6.83097 5.98705 6.40901 6.40901C5.98705 6.83097 5.75 7.40326 5.75 8H4.25C4.25 6.83 3.35 5.86 2.19 5.76C1.2 7.86 0.63 10.13 0.5 12.44L2 10.94L5 13.94Z" fill="black"/>
</svg>
