<svg width="140" height="140" viewBox="0 0 140 140" fill="none" xmlns="http://www.w3.org/2000/svg">
<g clip-path="url(#clip0_158_13150)">
<path d="M69.9911 136.507C106.727 136.507 136.507 106.727 136.507 69.9915C136.507 33.256 106.727 3.47607 69.9911 3.47607C33.2556 3.47607 3.47559 33.256 3.47559 69.9915C3.47559 106.727 33.2556 136.507 69.9911 136.507Z" stroke="white" stroke-width="6.96893" stroke-miterlimit="10"/>
<path d="M117.027 22.9722L22.9717 117.027" stroke="white" stroke-width="6.96893" stroke-miterlimit="10"/>
<path d="M64.5329 99.9495C64.5329 102.25 64.1803 104.484 63.5254 106.566C61.5103 107.187 59.3776 107.506 57.161 107.506C44.9528 107.506 35.0283 97.5986 35.0283 85.3736C35.0283 83.073 35.381 80.8228 36.0359 78.7405C38.051 78.1527 40.1837 77.8169 42.4003 77.8169C54.6085 77.8169 64.5329 87.7245 64.5329 99.9495Z" fill="#F9C708"/>
<path d="M55.3643 83.6607C59.764 87.607 61.1074 93.2829 58.3702 96.3391C55.633 99.3786 49.8395 98.6565 45.4399 94.6935C41.0402 90.7472 39.6968 85.0713 42.434 82.0151C45.1712 78.9756 50.9646 79.6977 55.3643 83.6607Z" fill="#F9D908"/>
<path d="M66.4142 100.521C65.457 102.62 64.8693 104.786 64.6006 106.969C66.1791 108.363 67.9927 109.538 70.0078 110.462C81.1245 115.516 94.2563 110.579 99.2941 99.4458C100.251 97.3467 100.856 95.1637 101.108 92.9807C99.5124 91.6037 97.7156 90.4282 95.6837 89.5046C84.567 84.45 71.4352 89.387 66.3974 100.521H66.4142Z" fill="#F9C708"/>
<path d="M81.4936 89.471C75.8512 91.251 72.2744 95.869 73.5171 99.7816C74.7597 103.694 80.3181 105.407 85.9604 103.627C91.6027 101.847 95.1795 97.2292 93.9369 93.3165C92.6942 89.4038 87.1359 87.691 81.4936 89.471Z" fill="#F9D908"/>
<path d="M69.0164 64.3325C69.6714 66.5491 69.9568 68.7657 69.9233 70.9655C68.16 72.1242 66.2121 73.0478 64.0794 73.6691C52.3582 77.1116 40.0492 70.4114 36.6067 58.6902C35.9518 56.4735 35.6663 54.2233 35.6999 52.0403C37.4631 50.8984 39.4279 49.9748 41.5437 49.3535C53.265 45.8942 65.574 52.6112 69.0164 64.3325Z" fill="#F9C708"/>
<path d="M55.6159 51.3015C60.9559 53.854 63.8442 58.9086 62.081 62.6197C60.3178 66.3141 54.5579 67.2545 49.2179 64.702C43.8778 62.1495 40.9895 57.095 42.7527 53.3838C44.5159 49.6894 50.2758 48.749 55.6159 51.3015Z" fill="#F9D908"/>
<path d="M71.1831 64.3998C70.4442 66.5828 70.0748 68.7995 70.0244 70.9825C71.7373 72.2084 73.6516 73.1991 75.7675 73.9212C87.3376 77.8339 99.8985 71.6038 103.811 60.0337C104.55 57.8507 104.936 55.6173 104.97 53.4175C103.24 52.2084 101.326 51.2176 99.2268 50.5123C87.6567 46.5997 75.0958 52.8297 71.1831 64.3998Z" fill="#F9C708"/>
<path d="M85.0872 51.8892C79.6464 54.2234 76.5734 59.1772 78.1855 62.9388C79.8144 66.7003 85.5239 67.859 90.9647 65.508C96.4055 63.1738 99.4953 58.22 97.8664 54.4585C96.2375 50.697 90.528 49.5383 85.0872 51.8892Z" fill="#F9D908"/>
<path d="M47.4385 126.65L50.2764 123.896C63.0892 111.436 70.3268 94.3073 70.3268 76.4232V41.0916" stroke="#A45E67" stroke-width="4.19815" stroke-miterlimit="10" stroke-linecap="round"/>
<path d="M64.5329 99.9495C64.5329 102.25 64.1803 104.484 63.5254 106.566C61.5103 107.187 59.3776 107.506 57.161 107.506C44.9528 107.506 35.0283 97.5986 35.0283 85.3736C35.0283 83.073 35.381 80.8228 36.0359 78.7405C38.051 78.1527 40.1837 77.8169 42.4003 77.8169C54.6085 77.8169 64.5329 87.7245 64.5329 99.9495Z" stroke="#A45E67" stroke-width="4.19815" stroke-miterlimit="10"/>
<path d="M66.4142 100.521C65.457 102.62 64.8693 104.786 64.6006 106.969C66.1791 108.363 67.9927 109.538 70.0078 110.462C81.1245 115.516 94.2563 110.579 99.2941 99.4458C100.251 97.3467 100.856 95.1637 101.108 92.9807C99.5124 91.6037 97.7156 90.4282 95.6837 89.5046C84.567 84.45 71.4352 89.387 66.3974 100.521H66.4142Z" stroke="#A45E67" stroke-width="4.19815" stroke-miterlimit="10"/>
<path d="M69.0165 64.3325C69.6714 66.5491 69.9568 68.7657 69.9233 70.9655C68.16 72.1242 66.2121 73.0478 64.0794 73.6691C52.3582 77.1116 40.0492 70.4114 36.6067 58.6902C35.9518 56.4735 35.6663 54.2233 35.6999 52.0403C37.4631 50.8984 39.4279 49.9748 41.5437 49.3535C53.265 45.8942 65.574 52.6112 69.0165 64.3325Z" stroke="#A45E67" stroke-width="4.19815" stroke-miterlimit="10"/>
<path d="M71.1831 64.3996C70.4442 66.5826 70.0748 68.7992 70.0244 70.9823C71.7373 72.2081 73.6516 73.1989 75.7675 73.921C87.3376 77.8336 99.8985 71.6036 103.811 60.0335C104.55 57.8505 104.936 55.617 104.97 53.4172C103.24 52.2082 101.326 51.2174 99.2268 50.5121C87.6567 46.5994 75.0958 52.8295 71.1831 64.3996Z" stroke="#A45E67" stroke-width="4.19815" stroke-miterlimit="10"/>
<path d="M70.3265 13.3335C70.3265 13.3335 44.3651 33.8204 70.3265 53.9716C96.2879 33.8204 70.3265 13.3335 70.3265 13.3335Z" fill="#F9C708"/>
<path d="M75.2409 41.8879C79.622 40.4855 81.553 34.2862 79.5541 28.0414C77.5551 21.7966 72.383 17.8711 68.002 19.2735C63.6209 20.6759 61.6898 26.8751 63.6888 33.1199C65.6878 39.3647 70.8598 43.2903 75.2409 41.8879Z" fill="#F9D908"/>
<path d="M70.3265 13.3335C70.3265 13.3335 44.3651 33.8205 70.3265 53.9716C96.2879 33.8205 70.3265 13.3335 70.3265 13.3335Z" stroke="#A45E67" stroke-width="4.19815" stroke-miterlimit="10"/>
<path d="M72.8124 24.1815C72.7285 24.0303 72.6445 23.896 72.5605 23.7449" stroke="white" stroke-width="3.19059" stroke-linecap="round" stroke-linejoin="round"/>
<path d="M76.6407 33.4342C76.6407 33.4342 76.6407 31.3519 75.5156 28.917" stroke="white" stroke-width="3.19059" stroke-linecap="round" stroke-linejoin="round"/>
<path d="M47.4051 53.7195C47.2372 53.6859 47.0693 53.6691 46.9014 53.6523" stroke="white" stroke-width="3.19059" stroke-linecap="round" stroke-linejoin="round"/>
<path d="M57.0276 56.4231C57.0276 56.4231 55.382 55.1469 52.7959 54.5088" stroke="white" stroke-width="3.19059" stroke-linecap="round" stroke-linejoin="round"/>
<path d="M46.6829 83.6607C46.5318 83.5767 46.3806 83.5096 46.2295 83.4424" stroke="white" stroke-width="3.19059" stroke-linecap="round" stroke-linejoin="round"/>
<path d="M55.0286 89.1686C55.0286 89.1686 53.8531 87.4558 51.5693 86.062" stroke="white" stroke-width="3.19059" stroke-linecap="round" stroke-linejoin="round"/>
<path d="M92.4424 54.576C92.6103 54.5424 92.7782 54.5256 92.9462 54.5088" stroke="white" stroke-width="3.19059" stroke-linecap="round" stroke-linejoin="round"/>
<path d="M82.8037 57.2964C82.8037 57.2964 84.4494 56.0202 87.0354 55.3821" stroke="white" stroke-width="3.19059" stroke-linecap="round" stroke-linejoin="round"/>
<path d="M87.9434 92.695C88.1113 92.695 88.2792 92.6782 88.4471 92.6782" stroke="white" stroke-width="3.19059" stroke-linecap="round" stroke-linejoin="round"/>
<path d="M78.1025 94.475C78.1025 94.475 79.8658 93.3667 82.5022 92.9805" stroke="white" stroke-width="3.19059" stroke-linecap="round" stroke-linejoin="round"/>
</g>
<defs>
<clipPath id="clip0_158_13150">
<rect width="140" height="140" fill="white"/>
</clipPath>
</defs>
</svg>
