<svg width="140" height="140" viewBox="0 0 140 140" fill="none" xmlns="http://www.w3.org/2000/svg">
<g clip-path="url(#clip0_158_13147)">
<path d="M0 69.9998C0 31.34 31.3401 0 70 0C108.66 0 140 31.34 140 69.9998C140 108.66 108.66 140 70 140C31.3401 140 0 108.66 0 69.9998Z" fill="white"/>
<path d="M39.4298 33.8033C28.0444 43.1736 23.6447 58.7403 21.9487 68.8998C20.1015 79.9326 22.8387 91.4187 29.942 99.8486C31.4869 101.679 33.1158 103.257 34.8118 104.651C48.1452 115.55 67.2216 115.55 80.5549 104.651C82.251 103.274 83.8798 101.679 85.4248 99.8486C92.5112 91.4187 95.2484 79.9326 93.418 68.8998C91.722 58.7403 87.3223 43.1736 75.9369 33.8033C65.1561 24.92 50.2106 24.92 39.4298 33.8033Z" fill="#F6F6F1"/>
<path d="M57.6835 27.1534C64.1151 27.1534 70.5466 29.37 75.9371 33.8201C87.3224 43.1903 91.7221 58.7571 93.4182 68.9166C95.2654 79.9493 92.5114 91.4522 85.4249 99.8653C83.88 101.696 82.2511 103.274 80.555 104.668C73.8884 110.126 65.7943 112.846 57.6835 112.846C49.5727 112.846 41.4786 110.126 34.8119 104.668C33.1159 103.291 31.4702 101.696 29.9421 99.8653C22.8556 91.4354 20.1184 79.9493 21.9488 68.9166C23.6449 58.7571 28.0445 43.1903 39.4299 33.8201C44.8203 29.3868 51.2519 27.1534 57.6835 27.1534ZM57.6835 22.9553C50.1604 22.9553 42.7213 25.6589 36.7599 30.5623C24.6188 40.5539 19.749 56.5572 17.8178 68.2113C15.7187 80.8057 18.9765 93.333 26.7347 102.552C28.3636 104.483 30.194 106.28 32.1587 107.892C39.346 113.786 48.414 117.027 57.6835 117.027C66.953 117.027 76.021 113.786 83.2083 107.892C85.173 106.28 87.0034 104.483 88.6323 102.552C96.4072 93.3162 99.6482 80.8057 97.5491 68.1945C95.6012 56.5237 90.7313 40.5371 78.6071 30.5455C72.6457 25.6421 65.2066 22.9385 57.6835 22.9385V22.9553Z" fill="#A45E67"/>
<path d="M85.2573 52.4262C90.3791 67.0861 84.5856 82.7368 72.327 87.3715C60.0684 92.0063 45.9794 83.8619 40.8577 69.202C35.7359 54.542 41.5294 38.8914 53.788 34.2566C66.0466 29.6218 80.1356 37.7663 85.2573 52.4262Z" fill="white"/>
<path d="M120.235 78.841C119.278 83.7109 117.179 89.4036 113.317 95.8687C108.346 104.215 100.151 110.344 90.6129 112.225C82.7036 113.786 72.8631 112.812 63.0898 104.399C60.487 102.2 57.9009 99.4455 55.3652 96.087L116.474 57.4473C116.474 57.4473 123.073 64.7017 120.252 78.841H120.235Z" fill="#F6F6F1"/>
<path d="M120.235 78.841C116.44 89.0005 107.943 98.1189 96.1715 103.173C89.6559 105.978 82.9389 107.204 76.5409 107.036C68.2454 106.801 60.4536 102.787 55.4326 96.1878L55.3486 96.087L116.457 57.4473C116.457 57.4473 123.056 64.7017 120.235 78.841Z" fill="white"/>
<path d="M116.457 57.4641C116.457 57.4641 128.413 70.5623 113.317 95.8855C108.346 104.231 100.151 110.378 90.5961 112.241C88.6314 112.628 86.5491 112.863 84.3829 112.863C75.4996 112.863 65.1385 109.001 55.3484 96.1206L116.457 57.4809M116.457 53.2827C115.684 53.2827 114.912 53.501 114.223 53.9376L53.0982 92.5438C52.1075 93.1651 51.419 94.1895 51.2174 95.3481C51.0159 96.5068 51.3014 97.6991 52.0067 98.6395C61.2762 110.848 72.1746 117.044 84.3829 117.044C86.7002 117.044 89.0512 116.809 91.4022 116.356C101.898 114.307 111.201 107.624 116.91 98.035C133.4 70.344 120.118 55.2642 119.547 54.6429C118.724 53.7361 117.599 53.2827 116.44 53.2827H116.457Z" fill="#A45E67"/>
<path d="M93.981 89.5841C110.859 78.9144 120.917 64.5328 116.447 57.4618C111.977 50.3908 94.6712 53.3082 77.7934 63.9779C60.9156 74.6476 50.8571 89.0293 55.3272 96.1002C59.7973 103.171 77.1032 100.254 93.981 89.5841Z" fill="white"/>
<path d="M104.366 67.9257C103.98 73.2322 97.5651 80.9736 88.0269 86.9853C79.0093 92.6948 69.8237 95.1969 64.6348 93.8199C63.0731 93.4169 61.8976 92.6444 61.1755 91.5193C58.0857 86.6159 65.0714 76.6243 76.7927 69.2188C88.5139 61.7964 100.537 59.7813 103.644 64.6848C104.232 65.5916 104.45 66.6999 104.366 67.9257Z" fill="#F9C708"/>
<path d="M97.6822 67.4387C99.4958 70.7804 94.9114 76.809 87.4219 80.8896C79.9324 84.9702 72.3758 85.5579 70.5622 82.2162C68.7486 78.8744 73.3329 72.8459 80.8224 68.7653C88.3119 64.6847 95.8686 64.097 97.6822 67.4387Z" fill="#F9D908"/>
<path d="M88.0435 87.0022C76.3223 94.4077 64.2988 96.4396 61.1922 91.5362C58.0855 86.6327 65.0712 76.6412 76.7925 69.2188C88.5137 61.8133 100.537 59.7814 103.644 64.6848C106.751 69.5883 99.7648 79.5799 88.0435 87.0022Z" stroke="#A45E67" stroke-width="4.19815" stroke-linecap="round" stroke-linejoin="round"/>
<path d="M92.7627 68.0099C92.9306 67.9595 93.0985 67.9259 93.2833 67.8923" stroke="white" stroke-width="3.49286" stroke-linecap="round" stroke-linejoin="round"/>
<path d="M83.0059 71.6539C83.0059 71.6539 84.6012 70.1762 87.2376 69.303" stroke="white" stroke-width="3.49286" stroke-linecap="round" stroke-linejoin="round"/>
<path d="M106.919 53.6017C111.403 53.6017 114.795 54.8444 116.44 57.464C120.907 64.5337 110.849 78.9081 93.972 89.5714C83.3255 96.3053 72.511 99.9492 64.8536 99.9492C60.37 99.9492 56.9778 98.7066 55.3322 96.087C50.8653 89.0173 60.9241 74.6428 77.8007 63.9795C88.4472 57.2457 99.2616 53.6017 106.919 53.6017ZM106.919 49.4036C98.2037 49.4036 86.4825 53.5178 75.5505 60.4363C66.9359 65.8939 59.6647 72.4766 55.1139 78.9921C49.841 86.532 48.6487 93.4001 51.7721 98.354C53.4514 101.007 57.0786 104.164 64.8536 104.164C73.5689 104.164 85.2902 100.05 96.2054 93.1315C104.82 87.6739 112.091 81.0912 116.642 74.5757C121.915 67.0358 123.107 60.1676 119.984 55.2138C118.304 52.5606 114.677 49.4036 106.902 49.4036H106.919Z" fill="#A45E67"/>
</g>
<defs>
<clipPath id="clip0_158_13147">
<rect width="140" height="140" fill="white"/>
</clipPath>
</defs>
</svg>
