<svg width="140" height="140" viewBox="0 0 140 140" fill="none" xmlns="http://www.w3.org/2000/svg">
<g clip-path="url(#clip0_158_13148)">
<path d="M69.9911 136.507C106.727 136.507 136.507 106.727 136.507 69.9916C136.507 33.2561 106.727 3.47607 69.9911 3.47607C33.2556 3.47607 3.47559 33.2561 3.47559 69.9916C3.47559 106.727 33.2556 136.507 69.9911 136.507Z" stroke="white" stroke-width="6.96893" stroke-miterlimit="10"/>
<path d="M117.027 22.9724L22.9717 117.028" stroke="white" stroke-width="6.96893" stroke-miterlimit="10"/>
<path d="M63.7112 53.938V117.196L30.042 105.626V62.2503L63.7112 53.938Z" fill="#FFE7ED"/>
<path d="M63.7114 91.8892V117.196L30.0254 105.626V79.1604C35.4494 82.0655 47.4225 87.859 63.7114 91.8892Z" fill="#EFC8D2"/>
<path d="M30.042 62.2672L63.7112 53.9548V117.196L30.042 105.609V62.2672Z" stroke="#A45E67" stroke-width="4.19815" stroke-linecap="round" stroke-linejoin="round"/>
<path d="M63.7112 53.9547L38.6734 60.1344L30.042 62.267L43.4929 33.6021L48.6818 38.8246L63.7112 53.9547Z" fill="white"/>
<path d="M63.7116 53.9546L38.6738 60.1343L48.6822 38.8245L63.7116 53.9546Z" fill="#EFC8D2"/>
<path d="M63.7112 53.9547L38.6734 60.1344L30.042 62.267L43.4929 33.6021L48.6818 38.8246L63.7112 53.9547Z" stroke="#A45E67" stroke-width="4.19815" stroke-linecap="round" stroke-linejoin="round"/>
<path d="M113.317 59.8321L63.7113 53.9379L43.5098 33.6021L56.4737 35.3149L95.5333 40.5038L105.676 51.5366L113.317 59.8321Z" fill="white"/>
<path d="M113.317 59.8321L63.7115 53.9379L43.4932 33.6021L56.4571 35.3149C61.965 39.9329 77.0784 49.9748 105.659 51.5366L113.3 59.8321H113.317Z" fill="#FFE7ED"/>
<path d="M95.5335 40.5038L113.317 59.8321L63.7115 53.9547L43.4932 33.6021L95.5335 40.5038Z" stroke="#A45E67" stroke-width="4.19815" stroke-linecap="round" stroke-linejoin="round"/>
<path d="M43.4932 33.6021L95.5335 40.5039V29.6894L43.4932 22.8044V33.6021Z" fill="white"/>
<path d="M43.4932 33.6021L95.5335 40.5039V29.6894L43.4932 22.8044V33.6021Z" stroke="#A45E67" stroke-width="4.19815" stroke-linecap="round" stroke-linejoin="round"/>
<path d="M113.317 59.832V105.625L63.7119 117.196V53.9377L113.317 59.832Z" fill="white"/>
<path d="M113.317 95.4996V105.626L63.7119 117.196V91.8892C77.5826 95.3149 94.5767 97.4643 113.317 95.4996Z" fill="#FFE7ED"/>
<path d="M113.317 59.832L63.7119 53.9546V117.196L113.317 105.609V59.832Z" stroke="#A45E67" stroke-width="4.19815" stroke-linecap="round" stroke-linejoin="round"/>
<path d="M113.317 75.382V93.9546L93.8379 96.1377L63.7119 99.5298V71.8052L113.317 75.382Z" fill="#92D3DD"/>
<path d="M93.8379 96.1376L63.7119 99.5297V91.8723C72.5784 94.0554 82.7547 95.7346 93.8379 96.1376Z" fill="#7FC7D1"/>
<path d="M113.317 75.382L63.7119 71.8052V99.5466L113.317 93.9546V75.382Z" stroke="#A45E67" stroke-width="4.19815" stroke-linecap="round" stroke-linejoin="round"/>
<path d="M101.847 81.0579L106.768 81.3938C107.439 81.4442 108.027 80.9236 108.061 80.2519C108.111 79.5802 107.59 78.9924 106.919 78.9589L101.999 78.623C101.327 78.5726 100.739 79.0932 100.706 79.7649C100.655 80.4366 101.176 81.0243 101.847 81.0579Z" fill="white"/>
<path d="M97.8679 80.7891L98.4725 80.8227C99.1442 80.8731 99.7319 80.3525 99.7655 79.6808C99.8159 79.0091 99.2953 78.4214 98.6236 78.3878L98.0191 78.3542C97.3474 78.3038 96.7596 78.8244 96.726 79.4961C96.6756 80.1678 97.1962 80.7555 97.8679 80.7891Z" fill="white"/>
<path d="M63.7112 71.8052V99.5298L30.042 93.7027V76.1545L63.7112 71.8052Z" fill="#75A7AF"/>
<path d="M63.7114 91.8892V99.5466L30.0254 93.7196V79.1604C35.4494 82.0655 47.4225 87.859 63.7114 91.8892Z" fill="#67939B"/>
<path d="M63.7112 71.8052L30.042 76.1545V93.7027L63.7112 99.5466V71.8052Z" stroke="#A45E67" stroke-width="4.19815" stroke-linecap="round" stroke-linejoin="round"/>
</g>
<defs>
<clipPath id="clip0_158_13148">
<rect width="140" height="140" fill="white"/>
</clipPath>
</defs>
</svg>
