<svg width="140" height="140" viewBox="0 0 140 140" fill="none" xmlns="http://www.w3.org/2000/svg">
<g clip-path="url(#clip0_158_13145)">
<path d="M0 69.9998C0 31.34 31.3401 0 70 0C108.66 0 140 31.34 140 69.9998C140 108.66 108.66 140 70 140C31.3401 140 0 108.66 0 69.9998Z" fill="white"/>
<path d="M119.201 64.3374L124.088 75.6232C125.823 79.6525 125.152 84.2974 122.335 87.6551C117.112 93.867 107.374 103.418 93.8313 108.175C86.9292 110.6 79.2623 107.484 75.6434 101.123L73.3303 97.0568L119.201 64.3374Z" fill="#8BC9D2"/>
<path d="M76.0908 21.2091L64.861 14.0086C60.5145 11.2104 54.8437 11.7328 51.0382 15.2211C45.3113 20.5002 37.5512 29.3796 33.5592 41.4675C30.7983 49.8432 34.6411 58.9838 42.3453 63.2742L76.0908 21.2091Z" fill="#8BC9D2"/>
<path d="M119.2 64.3569L73.3104 97.095L75.6235 101.162C78.4216 106.068 83.5888 109.034 88.9799 109.034C90.5842 109.034 92.2258 108.772 93.8114 108.213C107.354 103.475 117.092 93.9238 122.315 87.6933C125.132 84.3355 125.822 79.6906 124.069 75.6613L119.181 64.3756M119.181 59.712C119.592 59.712 120.021 59.768 120.431 59.8799C121.793 60.253 122.893 61.223 123.453 62.5288L128.34 73.8146C130.803 79.5041 129.851 85.9584 125.878 90.6966C119.778 97.9531 109.537 107.635 95.3597 112.615C93.3077 113.343 91.1625 113.697 88.9799 113.697C81.8354 113.697 75.1571 109.78 71.5755 103.475L69.2624 99.4081C68.0685 97.3375 68.6655 94.6886 70.6055 93.3082L116.495 60.5514C117.297 59.9732 118.248 59.6934 119.2 59.6934L119.181 59.712Z" fill="#A45E67"/>
<path d="M58.7412 12.1998C55.9617 12.1998 53.2009 13.2258 51.037 15.2218C45.3102 20.5009 37.55 29.3803 33.558 41.4682C30.7972 49.8439 34.6399 58.9845 42.3441 63.2749L76.0896 21.2098L64.8598 14.0093C62.9757 12.7968 60.8491 12.2185 58.7412 12.2185M58.7412 7.55493C61.8005 7.55493 64.7852 8.43168 67.3781 10.0919L78.608 17.2924C79.7272 18.0013 80.4734 19.1578 80.6972 20.4636C80.9024 21.7694 80.5666 23.1125 79.7272 24.1385L45.9631 66.2036C45.049 67.3415 43.7059 67.9571 42.3255 67.9571C41.5607 67.9571 40.7772 67.7706 40.0683 67.3788C30.2748 61.9505 25.6859 50.4409 29.1183 40.0318C33.4088 27.0485 41.6912 17.5349 47.8658 11.8267C50.8318 9.08457 54.6932 7.57359 58.7412 7.57359V7.55493Z" fill="#A45E67"/>
<path d="M37.9611 102.486C79.9705 113.063 106.292 83.6453 106.292 83.6453C106.292 83.6453 113.772 76.9485 119.816 64.9352C123.621 57.4549 126.83 47.8853 127.352 36.5435C127.501 33.4096 126.998 30.3877 125.934 27.6268C122.614 18.8594 113.921 12.6475 103.885 13.0952C92.5994 13.5989 83.0298 16.8261 75.5121 20.6129C63.4801 26.6568 56.7832 34.1371 56.7832 34.1371C56.7832 34.1371 36.3009 52.4742 35.704 82.9924C35.5547 89.0177 36.2263 95.5467 37.9611 102.486Z" fill="#84BEC7"/>
<path d="M16.5458 93.1401L46.1314 94.2967L47.288 123.882C47.3626 125.934 46.5978 127.93 45.1427 129.366C42.27 132.239 37.6064 132.239 34.7337 129.366L22.8883 117.521L11.0428 105.676C8.17007 102.803 8.17007 98.1394 11.0428 95.2667C12.4979 93.8116 14.4752 93.0468 16.5272 93.1214L16.5458 93.1401Z" fill="#84BEC7"/>
<path d="M104.892 13.0765C104.557 13.0765 104.221 13.0765 103.885 13.0951C92.5806 13.5988 83.011 16.8073 75.512 20.6128C63.48 26.6567 56.7832 34.1557 56.7832 34.1557C56.7832 34.1557 31.3761 56.9324 36.3381 93.9236L16.5647 93.1402C16.4714 93.1402 16.3781 93.1402 16.2848 93.1402C14.3448 93.1402 12.4607 93.905 11.0803 95.2854C8.20757 98.1581 8.20757 102.822 11.0803 105.694L22.9258 117.54L34.7712 129.385C36.2076 130.822 38.0916 131.53 39.9757 131.53C41.8598 131.53 43.7439 130.822 45.1802 129.385C46.6166 127.949 47.4001 125.953 47.3255 123.901L46.542 104.127C49.8252 104.575 52.9964 104.762 56.0557 104.762C87.3948 104.762 106.292 83.6639 106.292 83.6639C106.292 83.6639 113.791 76.967 119.816 64.9537C123.621 57.4548 126.83 47.9038 127.352 36.5621C127.93 23.7467 117.633 13.0951 104.911 13.0951M104.911 8.4316C112.373 8.4316 119.349 11.4163 124.517 16.826C129.684 22.2357 132.351 29.3056 131.997 36.7673C131.531 47.3069 128.826 57.5107 123.976 67.0616C118.1 78.7765 110.899 85.7531 109.612 86.9656C107.467 89.2788 87.8798 109.444 56.0743 109.444C54.526 109.444 52.9777 109.388 51.4294 109.295L51.989 123.714C52.1196 127.053 50.8325 130.318 48.482 132.687C46.1316 135.056 43.2029 136.213 39.9757 136.213C36.7485 136.213 33.7452 134.963 31.4694 132.687L19.624 120.842L7.77852 108.996C5.50271 106.72 4.25288 103.717 4.25288 100.49C4.25288 97.2627 5.50271 94.2594 7.77852 91.9836C10.0543 89.7078 13.0577 88.458 16.2848 88.458C16.4341 88.458 16.602 88.458 16.7512 88.458L31.1709 89.0176C29.007 54.5074 51.019 33.0924 53.4814 30.8166C54.6939 29.5108 61.6706 22.3103 73.4228 16.4156C83.011 11.5842 93.1962 8.8793 103.68 8.41294C104.09 8.41294 104.501 8.39429 104.892 8.39429L104.911 8.4316Z" fill="#A45E67"/>
<path d="M35.7044 82.9922C51.2994 94.4832 77.4712 92.3939 98.9796 76.6312C112.989 66.39 122.055 52.5113 124.965 39.0057C127.726 26.2089 118.622 13.4495 105.546 13.0764C105.005 13.0764 104.445 13.0764 103.886 13.0764C92.5998 13.5801 83.0302 16.8072 75.5125 20.594C63.4806 26.638 56.7837 34.1183 56.7837 34.1183C56.7837 34.1183 36.3014 52.4554 35.7044 82.9736V82.9922Z" fill="#8BC9D2"/>
<path d="M62.1183 36.6927C62.2862 36.5435 62.4541 36.3943 62.6406 36.2637" stroke="white" stroke-width="4.66355" stroke-linecap="round" stroke-linejoin="round"/>
<path d="M53.1271 46.5049C53.1271 46.5049 54.0971 43.912 56.5781 41.375" stroke="white" stroke-width="4.66355" stroke-linecap="round" stroke-linejoin="round"/>
<path d="M30.8721 103.792L23.3731 105.06" stroke="#A45E67" stroke-width="4.66355" stroke-linecap="round" stroke-linejoin="round"/>
<path d="M36.6553 109.574L35.3868 117.073" stroke="#A45E67" stroke-width="4.66355" stroke-linecap="round" stroke-linejoin="round"/>
<path d="M87.7488 52.6974C96.8707 61.8192 108.828 65.9791 119.797 64.9345C123.602 57.4355 126.811 47.8846 127.314 36.5428C127.911 23.3917 117.036 12.5163 103.866 13.0946C92.5616 13.5982 82.992 16.8067 75.493 20.6122C74.4483 31.5808 78.5896 43.5755 87.7302 52.6974H87.7488Z" fill="#84BEC7"/>
<path d="M104.892 13.0765C104.557 13.0765 104.221 13.0765 103.885 13.0952C92.5805 13.5988 83.0109 16.8074 75.5119 20.6128C74.4672 31.5815 78.6085 43.5761 87.749 52.698C95.9382 60.8872 106.459 65.103 116.477 65.103C117.596 65.103 118.715 65.047 119.816 64.9538C123.621 57.4548 126.83 47.9039 127.352 36.5621C127.93 23.7467 117.633 13.0952 104.911 13.0952M104.911 8.43164C112.373 8.43164 119.349 11.4163 124.535 16.826C129.702 22.2357 132.351 29.3057 132.016 36.7673C131.549 47.3069 128.844 57.5108 123.994 67.0617C123.267 68.4794 121.868 69.4308 120.282 69.5987C119.032 69.7106 117.764 69.7852 116.495 69.7852C104.892 69.7852 93.2334 64.7672 84.4846 56.0184C74.7657 46.2996 69.6917 32.9059 70.9043 20.1838C71.0535 18.5982 72.0235 17.1804 73.4412 16.4716C83.0295 11.6215 93.2147 8.9353 103.717 8.46895C104.127 8.46895 104.519 8.4503 104.93 8.4503L104.911 8.43164Z" fill="#A45E67"/>
<path d="M70.9232 87.5252C75.0271 90.4539 80.754 89.2974 83.4775 85.0815L92.9725 70.3261C94.3716 68.1622 94.5954 65.4946 93.6441 63.1442C93.5135 62.8457 93.3829 62.5659 93.215 62.2675C92.8606 61.6519 92.4315 61.0549 91.9279 60.5513C90.2303 58.8537 87.8239 58.0143 85.3989 58.3128L66.241 60.7565C60.682 61.4653 57.0818 67.1362 58.9845 72.4153C59.6747 74.2994 60.6261 76.314 61.9878 78.366C63.9838 81.4626 66.8566 84.6338 70.9419 87.5439L70.9232 87.5252Z" fill="#FFE7ED"/>
<path d="M86.3686 58.2381C86.0328 58.2381 85.7157 58.2568 85.3799 58.2941L66.222 60.7378C60.663 61.4466 57.0628 67.0988 58.9655 72.378C60.663 77.0788 64.0954 82.6378 70.9229 87.5251C72.4712 88.6257 74.2433 89.1481 75.9968 89.1481C78.9069 89.1481 81.7796 87.7117 83.4772 85.0628L92.9535 70.2887C94.5205 67.8637 94.6137 64.7671 93.196 62.2301C91.7969 59.7304 89.1667 58.2195 86.3686 58.2195M86.3686 53.5559C90.8829 53.5559 95.0614 55.9996 97.2813 59.9543C99.5385 63.9836 99.3892 68.9083 96.8896 72.807L87.4132 87.5811C84.9135 91.4798 80.6604 93.8116 76.0155 93.8116C73.1987 93.8116 70.5125 92.9535 68.218 91.312C61.6517 86.6111 57.0628 80.7723 54.6004 73.9636C53.22 70.1581 53.649 65.9796 55.7756 62.5099C57.9395 58.9656 61.5398 56.6338 65.6624 56.1115L84.8203 53.6678C85.3426 53.5932 85.8836 53.5746 86.4059 53.5746L86.3686 53.5559Z" fill="#A45E67"/>
<path d="M61.9689 78.3474C69.2254 83.1228 79.9329 81.5745 87.32 74.2061C90.5472 70.979 92.6737 67.0802 93.6064 63.1442C93.4759 62.8457 93.3453 62.5659 93.1774 62.2675C92.823 61.6519 92.3939 61.0549 91.8903 60.5513C90.1927 58.8537 87.7863 58.0143 85.3613 58.3128L66.2034 60.7565C60.6444 61.4653 57.0442 67.1362 58.9469 72.4153C59.6371 74.2994 60.5885 76.314 61.9502 78.366L61.9689 78.3474Z" fill="white"/>
<circle cx="8.575" cy="8.575" r="8.575" transform="matrix(-1 0 0 1 115.941 24.583)" stroke="#A45E67" stroke-width="4.66355" stroke-linecap="round" stroke-linejoin="round"/>
</g>
<defs>
<clipPath id="clip0_158_13145">
<rect width="140" height="140" fill="white" transform="matrix(-1 0 0 1 140 0)"/>
</clipPath>
</defs>
</svg>
