<svg width="140" height="140" viewBox="0 0 140 140" fill="none" xmlns="http://www.w3.org/2000/svg">
<g clip-path="url(#clip0_158_13144)">
<path d="M69.9911 136.507C106.727 136.507 136.507 106.727 136.507 69.9915C136.507 33.256 106.727 3.47607 69.9911 3.47607C33.2556 3.47607 3.47559 33.256 3.47559 69.9915C3.47559 106.727 33.2556 136.507 69.9911 136.507Z" stroke="white" stroke-width="6.96893" stroke-miterlimit="10"/>
<path d="M117.027 22.9722L22.9717 117.027" stroke="white" stroke-width="6.96893" stroke-miterlimit="10"/>
<path d="M58.7404 24.3829L37.5817 33.3502C35.4155 34.2738 34.0049 36.4064 34.0049 38.7574V63.0562C34.0049 65.5919 35.617 67.8253 38.0183 68.6314L59.2106 75.7011C60.554 76.1545 62.015 76.1041 63.308 75.5499L85.9444 66.1965C88.1443 65.2897 89.5716 63.1402 89.5716 60.7725V36.5743C89.5716 34.0219 87.9092 31.7549 85.4742 30.9656L63.9293 24.131C62.2165 23.5937 60.3693 23.6776 58.7236 24.3829H58.7404Z" fill="white"/>
<path d="M88.2455 32.8463L63.023 43.2745C61.9147 43.7279 60.6888 43.7782 59.5469 43.392L35.1641 35.2644C35.7686 34.4416 36.6082 33.7867 37.5822 33.35L58.7409 24.3828C60.3866 23.6943 62.2338 23.5936 63.9634 24.1477L85.4915 30.9823C86.5998 31.3349 87.5402 31.9898 88.2455 32.8463Z" fill="#ECECE7"/>
<path d="M61.3095 47.5566V76.0033C60.621 76.0369 59.8989 75.9361 59.2272 75.7178L38.0349 68.6481C35.7175 67.8757 34.139 65.7766 34.0215 63.3585C34.0215 63.2745 34.0215 63.1737 34.0215 63.073V38.7909C34.0215 37.4979 34.4413 36.272 35.1802 35.2812L57.9174 42.8547C59.9493 43.5432 61.3263 45.4408 61.3263 47.5734L61.3095 47.5566Z" fill="#DDDDD8"/>
<path d="M89.5885 36.5911V60.7892C89.5885 63.157 88.1611 65.3065 85.9613 66.2133L63.3249 75.5667C62.6868 75.8522 61.9983 75.9865 61.293 76.0033V47.3048C61.293 45.2897 62.502 43.4761 64.366 42.7036L88.2283 32.8296C89.0847 33.8539 89.5885 35.1638 89.5885 36.5743V36.5911Z" fill="#C8C8C4"/>
<path d="M89.5885 44.8533V60.7894C89.5885 63.1572 88.1611 65.3066 85.9613 66.2134L63.3249 75.5669C62.6868 75.8524 61.9983 75.9867 61.293 76.0035V65.038C76.4231 61.2764 85.827 50.1429 89.5717 44.8701L89.5885 44.8533Z" fill="#BCBCB8"/>
<path d="M61.3095 65.0211V75.9866C60.621 76.0202 59.8989 75.9194 59.2272 75.7011L38.0349 68.6315C35.7175 67.859 34.139 65.7599 34.0215 63.3418C44.584 66.9186 53.6688 66.9186 61.3095 65.0043V65.0211Z" fill="#D5D5D0"/>
<path d="M88.2445 32.8465L63.022 43.2747C61.9137 43.7281 60.6879 43.7785 59.546 43.3923L35.1631 35.2646C35.7676 34.4418 36.6072 33.7869 37.5812 33.3503L58.7399 24.383C60.3856 23.6946 62.2328 23.5938 63.9624 24.148L85.4905 30.9825C86.5989 31.3352 87.5392 31.9901 88.2445 32.8465Z" stroke="#A45E67" stroke-width="4.19815" stroke-linecap="round" stroke-linejoin="round"/>
<path d="M61.3095 47.5569V76.0035C60.621 76.0371 59.8989 75.9363 59.2272 75.718L38.0349 68.6484C35.7175 67.8759 34.139 65.7768 34.0215 63.3587C34.0215 63.2747 34.0215 63.174 34.0215 63.0732V38.7911C34.0215 37.4981 34.4413 36.2723 35.1802 35.2815L57.9174 42.855C59.9493 43.5434 61.3263 45.441 61.3263 47.5737L61.3095 47.5569Z" stroke="#A45E67" stroke-width="4.19815" stroke-linecap="round" stroke-linejoin="round"/>
<path d="M89.5885 36.5914V60.7895C89.5885 63.1572 88.1611 65.3067 85.9613 66.2135L63.3249 75.567C62.6868 75.8524 61.9983 75.9868 61.293 76.0036V47.305C61.293 45.2899 62.502 43.4763 64.366 42.7039L88.2283 32.8298C89.0847 33.8542 89.5885 35.164 89.5885 36.5746V36.5914Z" stroke="#A45E67" stroke-width="4.19815" stroke-linecap="round" stroke-linejoin="round"/>
<path d="M64.6508 29.9918L68.7146 31.2681C69.2688 31.436 69.8565 31.1337 70.0412 30.5796C70.2092 30.0254 69.9069 29.4377 69.3527 29.253L65.2889 27.9767C64.7348 27.8088 64.147 28.1111 63.9623 28.6652C63.7944 29.2194 64.0967 29.8071 64.6508 29.9918Z" fill="white"/>
<path d="M61.3764 28.9506L61.8634 29.1017C62.4175 29.2696 63.0053 28.9674 63.19 28.4132C63.3579 27.8591 63.0557 27.2713 62.5015 27.0866L62.0145 26.9355C61.4604 26.7675 60.8726 27.0698 60.6879 27.624C60.52 28.1781 60.8222 28.7659 61.3764 28.9506Z" fill="white"/>
<path d="M41.9985 43.3419L46.0623 44.6182C46.6164 44.7861 47.2042 44.4838 47.3889 43.9297C47.5568 43.3755 47.2546 42.7878 46.7004 42.6031L42.6366 41.3268C42.0824 41.1589 41.4947 41.4612 41.31 42.0153C41.1421 42.5695 41.4443 43.1572 41.9985 43.3419Z" fill="#ECECE7"/>
<path d="M38.7241 42.3007L39.211 42.4518C39.7652 42.6197 40.3529 42.3175 40.5377 41.7633C40.7056 41.2092 40.4033 40.6214 39.8492 40.4367L39.3622 40.2856C38.808 40.1176 38.2203 40.4199 38.0356 40.9741C37.8676 41.5282 38.1699 42.116 38.7241 42.3007Z" fill="#ECECE7"/>
<path d="M80.8223 39.7313L76.876 41.3266C76.3386 41.5449 76.0868 42.1663 76.3051 42.7036C76.5234 43.241 77.1447 43.4929 77.6821 43.2746L81.6283 41.6793C82.1657 41.461 82.4176 40.8396 82.1993 40.3023C81.981 39.7649 81.3596 39.513 80.8223 39.7313Z" fill="#ECECE7"/>
<path d="M84.0132 38.4384L83.543 38.6399C83.0056 38.8582 82.7538 39.4795 82.9721 40.0169C83.1904 40.5542 83.8117 40.8061 84.349 40.5878L84.8192 40.3863C85.3566 40.168 85.6085 39.5467 85.3902 39.0093C85.1719 38.472 84.5506 38.2201 84.0132 38.4384Z" fill="#ECECE7"/>
<path d="M93.7521 47.4391L72.5934 56.4063C70.4272 57.3299 69.0166 59.4626 69.0166 61.8135V86.1124C69.0166 88.6481 70.6287 90.8815 73.03 91.6875L94.2223 98.7572C95.5657 99.2106 97.0267 99.1602 98.3197 98.6061L120.956 89.2526C123.156 88.3458 124.583 86.1964 124.583 83.8286V59.6305C124.583 57.078 122.921 54.811 120.486 54.0218L98.941 47.1872C97.2282 46.6498 95.381 46.7338 93.7353 47.4391H93.7521Z" fill="white"/>
<path d="M123.24 55.8858L98.0171 66.314C96.9088 66.7674 95.683 66.8178 94.5411 66.4316L70.1582 58.304C70.7627 57.4811 71.6024 56.8262 72.5763 56.3896L93.735 47.4224C95.3807 46.7339 97.2279 46.6331 98.9575 47.1873L120.486 54.0218C121.594 54.3745 122.534 55.0294 123.24 55.8858Z" fill="#ECECE7"/>
<path d="M96.3046 70.613V99.0597C95.6161 99.0933 94.894 98.9925 94.2223 98.7742L73.03 91.7045C70.7127 90.9321 69.1341 88.833 69.0166 86.4148C69.0166 86.3309 69.0166 86.2301 69.0166 86.1294V61.8473C69.0166 60.5543 69.4364 59.3284 70.1753 58.3376L92.9125 65.9111C94.9444 66.5996 96.3214 68.4972 96.3214 70.6298L96.3046 70.613Z" fill="#DDDDD8"/>
<path d="M124.6 59.6307V83.8288C124.6 86.1965 123.173 88.346 120.973 89.2528L98.3366 98.6063C97.6985 98.8917 97.01 99.0261 96.3047 99.0429V70.3443C96.3047 68.3292 97.5138 66.5156 99.3777 65.7432L123.24 55.8691C124.096 56.8935 124.6 58.2033 124.6 59.6139V59.6307Z" fill="#C8C8C4"/>
<path d="M124.599 67.9092V83.8453C124.599 86.2131 123.172 88.3626 120.972 89.2694L98.3356 98.6228C97.6975 98.9083 97.009 99.0426 96.3037 99.0594V88.0939C111.434 84.3323 120.838 73.1988 124.582 67.926L124.599 67.9092Z" fill="#BCBCB8"/>
<path d="M96.3036 88.077V99.0425C95.6151 99.0761 94.893 98.9754 94.2213 98.757L73.0291 91.6874C70.7117 90.9149 69.1332 88.8158 69.0156 86.3977C79.5782 89.9745 88.663 89.9745 96.3036 88.0602V88.077Z" fill="#D5D5D0"/>
<path d="M123.239 55.8856L98.0162 66.3138C96.9079 66.7672 95.682 66.8175 94.5401 66.4313L70.1572 58.3037C70.7618 57.4809 71.6014 56.826 72.5754 56.3894L93.7341 47.4221C95.3797 46.7336 97.2269 46.6329 98.9566 47.187L120.485 54.0216C121.593 54.3742 122.533 55.0291 123.239 55.8856Z" stroke="#A45E67" stroke-width="4.19815" stroke-linecap="round" stroke-linejoin="round"/>
<path d="M96.3036 70.6128V99.0594C95.6151 99.093 94.893 98.9923 94.2213 98.7739L73.0291 91.7043C70.7117 90.9318 69.1332 88.8327 69.0156 86.4146C69.0156 86.3306 69.0156 86.2299 69.0156 86.1291V61.8471C69.0156 60.554 69.4354 59.3282 70.1743 58.3374L92.9115 65.9109C94.9434 66.5994 96.3204 68.4969 96.3204 70.6296L96.3036 70.6128Z" stroke="#A45E67" stroke-width="4.19815" stroke-linecap="round" stroke-linejoin="round"/>
<path d="M124.599 59.6302V83.8283C124.599 86.1961 123.172 88.3455 120.972 89.2523L98.3356 98.6058C97.6975 98.8913 97.009 99.0256 96.3037 99.0424V70.3439C96.3037 68.3287 97.5128 66.5152 99.3768 65.7427L123.239 55.8687C124.095 56.893 124.599 58.2028 124.599 59.6134V59.6302Z" stroke="#A45E67" stroke-width="4.19815" stroke-linecap="round" stroke-linejoin="round"/>
<path d="M99.6459 53.0477L103.71 54.324C104.264 54.4919 104.852 54.1896 105.036 53.6355C105.204 53.0813 104.902 52.4936 104.348 52.3089L100.284 51.0326C99.7299 50.8647 99.1422 51.167 98.9574 51.7211C98.7895 52.2753 99.0918 52.863 99.6459 53.0477Z" fill="white"/>
<path d="M96.3881 52.0067L96.8751 52.1579C97.4293 52.3258 98.017 52.0235 98.2017 51.4694C98.3696 50.9152 98.0674 50.3275 97.5132 50.1428L97.0262 49.9916C96.4721 49.8237 95.8843 50.126 95.6996 50.6801C95.5317 51.2343 95.834 51.822 96.3881 52.0067Z" fill="white"/>
<path d="M76.9926 66.3812L81.0564 67.6575C81.6106 67.8254 82.1983 67.5231 82.383 66.969C82.551 66.4148 82.2487 65.8271 81.6946 65.6424L77.6307 64.3661C77.0766 64.1982 76.4888 64.5005 76.3041 65.0546C76.1362 65.6088 76.4385 66.1965 76.9926 66.3812Z" fill="#ECECE7"/>
<path d="M73.7182 65.3568L74.2052 65.508C74.7593 65.6759 75.3471 65.3736 75.5318 64.8195C75.6997 64.2653 75.3975 63.6776 74.8433 63.4929L74.3563 63.3417C73.8022 63.1738 73.2144 63.4761 73.0297 64.0302C72.8618 64.5844 73.164 65.1721 73.7182 65.3568Z" fill="#ECECE7"/>
<path d="M115.834 62.7875L111.888 64.3828C111.35 64.6011 111.098 65.2224 111.317 65.7598C111.535 66.2971 112.156 66.549 112.694 66.3307L116.64 64.7354C117.177 64.5171 117.429 63.8958 117.211 63.3584C116.993 62.8211 116.371 62.5692 115.834 62.7875Z" fill="#ECECE7"/>
<path d="M119.007 61.4945L118.537 61.696C118 61.9143 117.748 62.5357 117.966 63.073C118.185 63.6104 118.806 63.8623 119.343 63.644L119.813 63.4425C120.351 63.2242 120.603 62.6028 120.384 62.0655C120.166 61.5281 119.545 61.2762 119.007 61.4945Z" fill="#ECECE7"/>
<path d="M47.674 62.9051L26.5153 71.8724C24.3491 72.796 22.9385 74.9286 22.9385 77.2796V101.578C22.9385 104.114 24.5506 106.348 26.9519 107.154L48.1442 114.223C49.4876 114.677 50.9486 114.626 52.2416 114.072L74.878 104.719C77.0779 103.812 78.5052 101.662 78.5052 99.2947V75.0966C78.5052 72.5441 76.8428 70.2771 74.4078 69.4878L52.8629 62.6532C51.1501 62.1159 49.3029 62.1998 47.6572 62.9051H47.674Z" fill="white"/>
<path d="M77.1791 71.3519L51.9566 81.7801C50.8483 82.2335 49.6224 82.2839 48.4805 81.8976L24.0977 73.77C24.7022 72.9472 25.5418 72.2923 26.5158 71.8557L47.6745 62.8884C49.3202 62.1999 51.1673 62.0992 52.897 62.6533L74.4251 69.4879C75.5334 69.8405 76.4738 70.4955 77.1791 71.3519Z" fill="#ECECE7"/>
<path d="M50.2431 86.0791V114.526C49.5546 114.559 48.8325 114.459 48.1608 114.24L26.9685 107.171C24.6511 106.398 23.0726 104.299 22.9551 101.881C22.9551 101.797 22.9551 101.696 22.9551 101.595V77.3134C22.9551 76.0203 23.3749 74.7945 24.1138 73.8037L46.851 81.3772C48.8829 82.0657 50.2599 83.9632 50.2599 86.0959L50.2431 86.0791Z" fill="#DDDDD8"/>
<path d="M78.5221 75.0967V99.2949C78.5221 101.663 77.0947 103.812 74.8949 104.719L52.2585 114.072C51.6204 114.358 50.9319 114.492 50.2266 114.509V85.8104C50.2266 83.7953 51.4356 81.9817 53.2996 81.2092L77.1619 71.3352C78.0183 72.3596 78.5221 73.6694 78.5221 75.08V75.0967Z" fill="#C8C8C4"/>
<path d="M78.5221 83.3586V99.2948C78.5221 101.663 77.0947 103.812 74.8949 104.719L52.2585 114.072C51.6204 114.358 50.9319 114.492 50.2266 114.509V103.543C65.3567 99.7818 74.7606 88.6483 78.5053 83.3754L78.5221 83.3586Z" fill="#BCBCB8"/>
<path d="M50.2431 103.543V114.509C49.5546 114.542 48.8325 114.442 48.1608 114.223L26.9685 107.154C24.6511 106.381 23.0726 104.282 22.9551 101.864C33.5176 105.441 42.6024 105.441 50.2431 103.526V103.543Z" fill="#D5D5D0"/>
<path d="M77.1781 71.3519L51.9556 81.7801C50.8473 82.2335 49.6214 82.2839 48.4796 81.8976L24.0967 73.77C24.7012 72.9472 25.5408 72.2923 26.5148 71.8557L47.6735 62.8884C49.3192 62.1999 51.1664 62.0992 52.896 62.6533L74.4241 69.4879C75.5324 69.8405 76.4728 70.4955 77.1781 71.3519Z" stroke="#A45E67" stroke-width="4.19815" stroke-linecap="round" stroke-linejoin="round"/>
<path d="M50.2431 86.0791V114.526C49.5546 114.559 48.8325 114.459 48.1608 114.24L26.9685 107.171C24.6511 106.398 23.0726 104.299 22.9551 101.881C22.9551 101.797 22.9551 101.696 22.9551 101.595V77.3134C22.9551 76.0203 23.3749 74.7945 24.1138 73.8037L46.851 81.3772C48.8829 82.0657 50.2599 83.9632 50.2599 86.0959L50.2431 86.0791Z" stroke="#A45E67" stroke-width="4.19815" stroke-linecap="round" stroke-linejoin="round"/>
<path d="M78.5221 75.0967V99.2949C78.5221 101.663 77.0947 103.812 74.8949 104.719L52.2585 114.072C51.6204 114.358 50.9319 114.492 50.2266 114.509V85.8104C50.2266 83.7953 51.4356 81.9817 53.2996 81.2092L77.1619 71.3352C78.0183 72.3596 78.5221 73.6694 78.5221 75.08V75.0967Z" stroke="#A45E67" stroke-width="4.19815" stroke-linecap="round" stroke-linejoin="round"/>
<path d="M53.5854 68.497L57.6492 69.7732C58.2034 69.9411 58.7911 69.6389 58.9758 69.0847C59.1437 68.5305 58.8415 67.9428 58.2873 67.7581L54.2235 66.4819C53.6694 66.3139 53.0816 66.6162 52.8969 67.1704C52.729 67.7245 53.0312 68.3122 53.5854 68.497Z" fill="white"/>
<path d="M50.311 67.4726L50.798 67.6237C51.3521 67.7916 51.9399 67.4893 52.1246 66.9352C52.2925 66.381 51.9902 65.7933 51.4361 65.6086L50.9491 65.4574C50.3949 65.2895 49.8072 65.5918 49.6225 66.1459C49.4546 66.7001 49.7568 67.2878 50.311 67.4726Z" fill="white"/>
<path d="M30.9321 81.8473L34.9959 83.1235C35.55 83.2915 36.1378 82.9892 36.3225 82.435C36.4904 81.8809 36.1882 81.2931 35.634 81.1084L31.5702 79.8322C31.016 79.6643 30.4283 79.9665 30.2436 80.5207C30.0756 81.0748 30.3779 81.6626 30.9321 81.8473Z" fill="#ECECE7"/>
<path d="M27.6577 80.806L28.1446 80.9572C28.6988 81.1251 29.2865 80.8228 29.4713 80.2687C29.6392 79.7145 29.3369 79.1268 28.7828 78.9421L28.2958 78.7909C27.7416 78.623 27.1539 78.9253 26.9692 79.4794C26.8012 80.0336 27.1035 80.6213 27.6577 80.806Z" fill="#ECECE7"/>
<path d="M69.7559 78.2533L65.8096 79.8486C65.2722 80.0669 65.0204 80.6882 65.2387 81.2256C65.457 81.763 66.0783 82.0148 66.6157 81.7965L70.5619 80.2012C71.0993 79.9829 71.3512 79.3616 71.1329 78.8243C70.9146 78.2869 70.2932 78.035 69.7559 78.2533Z" fill="#ECECE7"/>
<path d="M72.9468 76.9603L72.4766 77.1618C71.9392 77.3802 71.6873 78.0015 71.9057 78.5388C72.124 79.0762 72.7453 79.3281 73.2826 79.1098L73.7528 78.9083C74.2902 78.69 74.5421 78.0686 74.3238 77.5313C74.1055 76.9939 73.4842 76.742 72.9468 76.9603Z" fill="#ECECE7"/>
</g>
<defs>
<clipPath id="clip0_158_13144">
<rect width="140" height="140" fill="white"/>
</clipPath>
</defs>
</svg>
