<svg width="140" height="140" viewBox="0 0 140 140" fill="none" xmlns="http://www.w3.org/2000/svg">
<g clip-path="url(#clip0_158_13149)">
<path d="M0.0839844 70.0828C0.0839844 31.423 31.4241 0.0830078 70.084 0.0830078C108.744 0.0830078 140.084 31.423 140.084 70.0828C140.084 108.743 108.744 140.083 70.084 140.083C31.4241 140.083 0.0839844 108.743 0.0839844 70.0828Z" fill="white"/>
<mask id="mask0_158_13149" style="mask-type:alpha" maskUnits="userSpaceOnUse" x="17" y="17" width="90" height="106">
<path fill-rule="evenodd" clip-rule="evenodd" d="M38.6009 38.2503V39.8997H86.2675C97.1985 39.8997 106.06 48.761 106.06 59.692V61.3414C106.06 72.2724 97.1985 81.1337 86.2675 81.1337H38.6009V82.7831H86.2675C97.1985 82.7831 106.06 91.6444 106.06 102.575V111.812C106.06 117.277 101.629 121.708 96.1636 121.708C90.6981 121.708 86.2675 117.277 86.2675 111.812V102.575H38.6009C27.6699 102.575 18.8086 93.7141 18.8086 82.7831V81.1337C18.8086 70.2027 27.6699 61.3414 38.6009 61.3414H86.2675V59.692H38.6009C27.6699 59.692 18.8086 50.8307 18.8086 39.8997V38.2503C18.8086 27.3193 27.6699 18.458 38.6009 18.458H96.1636C101.629 18.458 106.06 22.8887 106.06 28.3542C106.06 33.8197 101.629 38.2503 96.1636 38.2503H38.6009ZM86.267 59.6797C86.2669 59.6794 86.2669 59.6795 86.267 59.6801L86.267 59.6797Z" fill="#8BC9D2" stroke="#A45E67" stroke-width="1.8143" stroke-linecap="round" stroke-linejoin="round"/>
</mask>
<g mask="url(#mask0_158_13149)">
<path fill-rule="evenodd" clip-rule="evenodd" d="M38.6009 38.2503V39.8997H86.2675C97.1985 39.8997 106.06 48.761 106.06 59.692V61.3414C106.06 72.2724 97.1985 81.1337 86.2675 81.1337H38.6009V82.7831H86.2675C97.1985 82.7831 106.06 91.6444 106.06 102.575V111.812C106.06 117.277 101.629 121.708 96.1636 121.708C90.6981 121.708 86.2675 117.277 86.2675 111.812V102.575H38.6009C27.6699 102.575 18.8086 93.7141 18.8086 82.7831V81.1337C18.8086 70.2027 27.6699 61.3414 38.6009 61.3414H86.2675V59.692H38.6009C27.6699 59.692 18.8086 50.8307 18.8086 39.8997V38.2503C18.8086 27.3193 27.6699 18.458 38.6009 18.458H96.1636C101.629 18.458 106.06 22.8887 106.06 28.3542C106.06 33.8197 101.629 38.2503 96.1636 38.2503H38.6009ZM86.267 59.6797C86.2669 59.6794 86.2669 59.6795 86.267 59.6801L86.267 59.6797Z" fill="#84BEC7" stroke="#A45E67" stroke-width="1.8143" stroke-linecap="round" stroke-linejoin="round"/>
<circle cx="143.253" cy="99.1942" r="80.7362" fill="#8BC9D2"/>
<path fill-rule="evenodd" clip-rule="evenodd" d="M17.9014 38.2503C17.9014 26.8183 27.1688 17.5508 38.6008 17.5508H96.1635C102.13 17.5508 106.967 22.3876 106.967 28.3541C106.967 34.3206 102.13 39.1574 96.1635 39.1574H88.8929C99.0853 40.4476 106.967 49.1493 106.967 59.692V61.3413C106.967 72.1463 98.6881 81.0177 88.1278 81.9583C98.6881 82.899 106.967 91.7704 106.967 102.575V111.812C106.967 117.778 102.13 122.615 96.1635 122.615C90.197 122.615 85.3602 117.778 85.3602 111.812V103.482H38.6008C27.1688 103.482 17.9014 94.215 17.9014 82.783V81.1336C17.9014 70.3287 26.1801 61.4573 36.7405 60.5166C26.1801 59.576 17.9014 50.7046 17.9014 39.8996V38.2503ZM85.3672 59.7957C85.4017 60.0652 85.552 60.2931 85.7628 60.4342L85.3672 59.7957ZM87.1737 59.6529C87.1742 59.6659 87.1745 59.6789 87.1745 59.692V61.3413C87.1745 61.8423 86.7684 62.2485 86.2674 62.2485H38.6008C28.1708 62.2485 19.7157 70.7036 19.7157 81.1336V82.783C19.7157 93.213 28.1708 101.668 38.6008 101.668H86.2674C86.7684 101.668 87.1745 102.074 87.1745 102.575V111.812C87.1745 116.776 91.1991 120.801 96.1635 120.801C101.128 120.801 105.153 116.776 105.153 111.812V102.575C105.153 92.1453 96.6974 83.6902 86.2674 83.6902H38.6008C38.0998 83.6902 37.6937 83.284 37.6937 82.783V81.1336C37.6937 80.6326 38.0998 80.2265 38.6008 80.2265H86.2674C96.6974 80.2265 105.153 71.7713 105.153 61.3413V59.692C105.153 49.262 96.6974 40.8068 86.2674 40.8068H38.6008C38.0998 40.8068 37.6937 40.4006 37.6937 39.8996V38.2503C37.6937 37.7493 38.0998 37.3431 38.6008 37.3431H96.1635C101.128 37.3431 105.153 33.3186 105.153 28.3541C105.153 23.3896 101.128 19.3651 96.1635 19.3651H38.6008C28.1708 19.3651 19.7157 27.8203 19.7157 38.2503V39.8996C19.7157 50.3296 28.1708 58.7848 38.6008 58.7848H86.2674C86.5828 58.7848 86.8606 58.9458 87.0231 59.19C87.0294 59.1956 87.0355 59.2013 87.0413 59.2071C87.0822 59.2819 87.1268 59.3906 87.1366 59.4215C87.1481 59.4605 87.1546 59.4928 87.1555 59.4971L87.1556 59.4974C87.1588 59.5132 87.161 59.526 87.1614 59.5287L87.1615 59.5291C87.1622 59.5335 87.1628 59.537 87.163 59.5386L87.1633 59.5406C87.1637 59.5428 87.164 59.5449 87.1643 59.547C87.1644 59.5476 87.1645 59.5481 87.1645 59.5487C87.1653 59.5542 87.1661 59.5597 87.1668 59.5652C87.1669 59.5659 87.167 59.5667 87.1671 59.5675C87.1678 59.5731 87.1686 59.5798 87.1693 59.5874C87.1685 59.5796 87.1676 59.5722 87.167 59.5668C87.1682 59.5761 87.1692 59.5854 87.1701 59.5948L87.1701 59.5951C87.1719 59.6145 87.1731 59.6338 87.1737 59.6529ZM87.1734 59.6468C87.1727 59.6271 87.1715 59.6119 87.1712 59.6075C87.1708 59.6035 87.1705 59.5994 87.1701 59.5951L87.1701 59.5948C87.1698 59.5923 87.1696 59.5899 87.1693 59.5874L87.1686 59.5875C87.1689 59.5899 87.1691 59.5924 87.1694 59.5948C87.1694 59.5949 87.1694 59.5951 87.1694 59.5952C87.1712 59.6123 87.1726 59.6295 87.1734 59.6468ZM87.167 59.5668C87.1669 59.5663 87.1669 59.5658 87.1668 59.5652C87.1655 59.5549 87.166 59.558 87.167 59.5668ZM87.1645 59.5487L87.1645 59.5481L87.1643 59.547L87.164 59.5452C87.1643 59.5469 87.1645 59.5483 87.1646 59.5495L87.1645 59.5487Z" fill="#A45E67"/>
<path d="M90.8797 73.4039C90.7473 73.5037 90.6148 73.6035 90.4823 73.7033" stroke="white" stroke-width="3.62178" stroke-linecap="round" stroke-linejoin="round"/>
<path d="M97.9232 66.3898C97.9232 66.3898 97.114 68.3014 95.1801 70.1014" stroke="white" stroke-width="3.62178" stroke-linecap="round" stroke-linejoin="round"/>
</g>
</g>
<defs>
<clipPath id="clip0_158_13149">
<rect width="140" height="140" fill="white" transform="matrix(-1 0 0 1 140 0)"/>
</clipPath>
</defs>
</svg>
