<svg width="140" height="144" viewBox="0 0 140 144" fill="none" xmlns="http://www.w3.org/2000/svg">
<g clip-path="url(#clip0_158_13146)">
<path d="M140 70.0001C140 31.3401 108.66 0 70 0C31.3401 0 0 31.3401 0 70.0001C0 108.66 31.3401 140 70 140C108.66 140 140 108.66 140 70.0001Z" fill="white"/>
<path d="M111.104 46.8402C105.675 42.2885 98.6052 40.9827 92.2068 43.128C93.3633 35.9088 93.6804 21.8061 80.4173 15.501C73.8697 12.3857 66.1655 12.3857 59.6365 15.501C46.3733 21.8061 46.6904 35.9088 47.847 43.128C41.4113 40.9454 34.304 42.2139 28.8943 46.7469C22.9436 51.7462 20.873 59.2452 23.4846 66.3525C26.2081 73.7396 32.6998 79.1493 37.6058 82.3579C32.9796 83.9248 29.7711 87.5624 28.3533 91.3679C26.0029 97.729 28.1481 104.407 33.8377 108.343C37.4006 110.824 41.6538 112.559 45.5525 113.753C51.1301 115.469 56.9503 116.215 62.7704 116.215H82.7677H82.8796C83.4579 116.159 97.2247 114.686 106.384 108.269C111.962 104.351 114.014 97.729 111.607 91.4052C110.171 87.6184 106.981 83.9995 102.411 82.4138C107.298 79.224 113.808 73.8515 116.569 66.4831C119.237 59.3945 117.147 51.8768 111.141 46.8402H111.104Z" fill="#8BC9D2"/>
<path d="M58.2568 25.1079C58.3501 24.9586 58.4434 24.8094 58.5366 24.6602" stroke="white" stroke-width="3.84277" stroke-linecap="round" stroke-linejoin="round"/>
<path d="M53.9473 34.7334C53.9473 34.7334 54.0219 32.5322 55.2531 30.0139" stroke="white" stroke-width="3.84277" stroke-linecap="round" stroke-linejoin="round"/>
<path d="M102.355 82.4146C106.925 84.0002 110.115 87.6191 111.552 91.4059C113.977 97.7484 111.906 104.371 106.328 108.288C97.1692 114.705 83.421 116.179 82.8427 116.216H82.7308H62.7334C56.9133 116.216 51.0745 115.451 45.5156 113.735C41.8034 112.597 37.7927 110.974 34.3604 108.698C68.6841 118.287 85.1185 113.791 93.0093 107.393C101.758 100.285 99.3517 86.4439 88.6255 82.9369C86.1258 82.1347 84.2418 81.8922 84.2418 81.8922C97.9526 77.9562 102.765 68.9648 104.444 63.1447C105.545 59.3579 105.545 55.2913 104.239 51.5791C101.031 42.3825 92.2071 43.11 92.2071 43.11C98.6055 40.9648 105.675 42.2519 111.104 46.8222C115.376 50.4225 117.67 55.2726 117.67 60.3093C117.67 62.3612 117.297 64.4319 116.532 66.4838C113.753 73.8523 107.242 79.2433 102.374 82.4146H102.355Z" fill="#84BEC7"/>
<path d="M70.009 13.1513C73.572 13.1513 77.135 13.9348 80.3994 15.4831C93.6626 21.7882 93.3455 35.9095 92.1889 43.1101C94.2036 42.4385 96.2742 42.1027 98.3448 42.1027C102.859 42.1027 107.373 43.707 111.086 46.8223C117.092 51.8589 119.163 59.3952 116.514 66.4652C113.735 73.8336 107.224 79.2247 102.355 82.3959C106.926 83.9815 110.116 87.6005 111.552 91.3873C113.958 97.7297 111.906 104.352 106.329 108.251C103.12 110.489 99.3521 112.131 95.7892 113.325C89.8012 115.302 83.5147 116.197 77.2282 116.197H62.7525C56.9138 116.197 51.075 115.433 45.4974 113.735C41.5986 112.541 37.3641 110.806 33.8012 108.325C28.1116 104.371 25.9664 97.7111 28.3168 91.35C29.7346 87.5445 32.9431 83.9069 37.5693 82.34C32.6633 79.1314 26.1716 73.7217 23.4481 66.3346C20.8365 59.2273 22.9071 51.7097 28.8578 46.729C32.5513 43.6324 37.0097 42.0654 41.524 42.0654C43.632 42.0654 45.7585 42.4198 47.8105 43.1101C46.6539 35.8909 46.3368 21.8069 59.6 15.4831C62.8645 13.9348 66.4274 13.1513 69.9904 13.1513M69.9904 8.48775C65.7186 8.48775 61.4281 9.45777 57.5853 11.2672C47.6986 15.9681 42.4194 25.3139 42.606 37.4205C42.2329 37.4205 41.8785 37.4018 41.5054 37.4018C35.8345 37.4018 30.2755 39.4538 25.8358 43.166C18.3368 49.4525 15.7252 58.9662 19.0457 67.9575C21.1723 73.7403 25.1643 78.4039 29.2495 81.9296C26.8991 84.0562 25.0337 86.7424 23.9144 89.7457C20.7992 98.1774 23.616 106.982 31.115 112.168C34.6033 114.593 38.9684 116.627 44.0983 118.193C49.8811 119.966 56.1489 120.861 62.7152 120.861H77.1909C84.2609 120.861 91.0137 119.816 97.2256 117.746C101.833 116.216 105.788 114.313 108.978 112.075C116.253 106.982 119.032 98.0095 115.88 89.7271C114.761 86.761 112.914 84.1121 110.601 82.0042C114.686 78.4972 118.697 73.8523 120.86 68.0881C124.237 59.0968 121.644 49.5644 114.07 43.222C109.593 39.4725 104.016 37.4018 98.3262 37.4018C98.009 37.4018 97.6733 37.4018 97.3561 37.4205C97.5613 25.3139 92.3008 15.9495 82.3954 11.2299C78.5713 9.40181 74.2809 8.45044 69.9904 8.45044V8.48775Z" fill="#A45E67"/>
<path d="M76.9108 72.7142C76.2766 69.3937 73.3852 66.9873 70.0088 66.9873C66.6323 66.9873 63.7409 69.3937 63.1067 72.7142L52.8469 126.905C52.1567 130.505 53.1267 134.217 55.4585 137.034C57.7902 139.869 61.2786 141.511 64.9535 141.511H75.0827C78.7576 141.511 82.2273 139.869 84.5777 137.034C86.9095 134.217 87.8609 130.505 87.1893 126.905L76.9295 72.7142H76.9108Z" fill="white"/>
<path d="M78.3284 101.441C77.4143 101.441 76.5003 101.087 75.8287 100.359C74.5416 98.9787 74.6162 96.8148 75.9779 95.5276L87.7674 84.4657C89.1478 83.1785 91.3117 83.2531 92.5988 84.6149C93.886 85.9953 93.8114 88.1592 92.4496 89.4464L80.6601 100.508C80.0072 101.124 79.1678 101.441 78.3284 101.441Z" fill="white"/>
<path d="M64.4315 90.8647C63.5921 90.8647 62.7526 90.5662 62.0997 89.932L50.3103 78.87C48.9298 77.5828 48.8552 75.4189 50.161 74.0385C51.4482 72.6581 53.6121 72.5835 54.9925 73.8893L66.7819 84.9513C68.1624 86.2384 68.237 88.4023 66.9312 89.7827C66.2596 90.4916 65.3456 90.8647 64.4315 90.8647Z" fill="white"/>
<path d="M87.3946 129.181C87.3946 132.016 86.406 134.796 84.5778 137.015C82.2461 139.851 78.7577 141.493 75.0828 141.493H70.0089C73.4226 140.168 75.1015 137.426 75.9223 135.001C76.6125 133.005 76.7617 130.86 76.5192 128.77L69.9902 66.9688C73.3667 66.9688 76.2581 69.3751 76.8923 72.6769L87.1521 126.868C87.2827 127.632 87.376 128.397 87.376 129.162L87.3946 129.181Z" fill="#FFE7ED"/>
<path d="M92.6169 84.634C91.3297 83.2536 89.1659 83.179 87.7854 84.4848L80.4357 91.3682L76.91 72.7139C76.2758 69.3935 73.3844 66.9871 70.008 66.9871C66.6315 66.9871 63.7401 69.3935 63.1059 72.7139L61.6882 80.2129L54.9726 73.9078C53.5922 72.6206 51.4283 72.6953 50.1412 74.057C48.8541 75.4374 48.9287 77.6013 50.2904 78.8885L60.1772 88.1596L52.8461 126.886C52.1559 130.486 53.1259 134.198 55.4577 137.015C57.7894 139.851 61.2778 141.492 64.9527 141.492H75.0819C78.7568 141.492 82.2265 139.851 84.5769 137.015C86.9087 134.198 87.8601 130.486 87.1885 126.886L81.9653 99.2962L92.4676 89.4468C93.8481 88.1596 93.9227 85.9958 92.6169 84.6153V84.634Z" stroke="#A45E67" stroke-width="4.66356" stroke-miterlimit="10"/>
<path d="M75.1014 115.228L76.5378 128.771C76.5378 128.771 77.9928 138.191 70.0088 141.493" stroke="#A45E67" stroke-width="4.32779" stroke-linecap="round" stroke-linejoin="round"/>
<path d="M74.2809 107.41L73.7959 102.747" stroke="#A45E67" stroke-width="4.32779" stroke-linecap="round" stroke-linejoin="round"/>
</g>
<defs>
<clipPath id="clip0_158_13146">
<rect width="140" height="143.824" fill="white"/>
</clipPath>
</defs>
</svg>
