<svg width="78" height="78" viewBox="0 0 78 78" fill="none" xmlns="http://www.w3.org/2000/svg">
<path d="M39.3467 77.4725C60.4026 77.4725 77.4718 60.4034 77.4718 39.3475C77.4718 18.2917 60.4026 1.22253 39.3467 1.22253C18.2909 1.22253 1.22174 18.2917 1.22174 39.3475C1.22174 60.4034 18.2909 77.4725 39.3467 77.4725Z" fill="white" stroke="black" stroke-width="0.09375"/>
<path d="M37.3288 0.437297C31.8569 0.696672 26.7257 2.0123 21.91 4.39042C12.9256 8.83105 5.9819 16.6373 2.6319 26.0654C0.763149 31.3185 0.0693992 36.8435 0.566274 42.4842C1.26315 50.406 4.46315 58.0029 9.66315 64.0685C10.9007 65.5123 12.2819 66.9029 13.6881 68.1279C19.0569 72.7935 25.5725 75.8748 32.5475 77.0467C36.7694 77.756 41.0819 77.7654 45.2819 77.0748C47.7882 76.6654 50.2538 76.0029 52.6194 75.1123C62.9413 71.2154 71.1475 63.031 75.0725 52.7154C78.26 44.3435 78.4225 35.0654 75.535 26.5623C73.9725 21.9529 71.5038 17.6279 68.3319 13.9248C67.01 12.381 65.4819 10.8592 63.9663 9.5748C57.9163 4.44355 50.5163 1.31855 42.6725 0.577922C41.1788 0.437297 38.7069 0.371672 37.3288 0.437297ZM40.5944 1.59355C49.1194 1.96542 57.1163 5.1498 63.5475 10.7342C68.3225 14.881 71.9663 20.1623 74.1569 26.1123C76.2007 31.6685 76.8882 37.7467 76.1382 43.7029C75.1069 51.9342 71.3725 59.5529 65.4788 65.456C60.3475 70.5935 53.8538 74.1279 46.7944 75.6185C41.7007 76.6967 36.3569 76.7029 31.2819 75.6373C27.1882 74.7779 23.3444 73.2654 19.7038 71.0842C16.7475 69.3154 13.8819 66.981 11.5069 64.4092C5.7694 58.1967 2.33502 50.3435 1.67565 41.9373C1.51002 39.856 1.53502 37.431 1.73815 35.3279C2.2569 29.9467 3.96315 24.6998 6.71315 20.031C7.07877 19.4092 7.6569 18.4935 7.96315 18.0467C9.4694 15.8623 10.7569 14.306 12.5007 12.5623C13.6007 11.4592 14.3788 10.756 15.5475 9.81542C21.7975 4.77167 29.5725 1.86855 37.5944 1.58417C38.2288 1.55917 39.9694 1.56542 40.5944 1.59355Z" fill="black"/>
<path d="M39.4748 3.94685C38.9592 4.13435 38.856 4.79998 39.2842 5.1656C39.4342 5.29373 39.6592 5.35935 39.8435 5.3281C40.1623 5.27498 40.4373 4.94373 40.4373 4.61248C40.4342 4.1281 39.9342 3.78123 39.4748 3.94685Z" fill="black"/>
<path d="M36.5166 4.0282C36.3603 4.09695 36.176 4.29695 36.126 4.4532C36.026 4.7532 36.1697 5.12195 36.4478 5.29382C36.5728 5.37195 36.6322 5.38757 36.7916 5.38757C37.4478 5.38445 37.7666 4.60007 37.2916 4.15007C37.101 3.96882 36.7635 3.9157 36.5166 4.0282Z" fill="black"/>
<path d="M42.4599 4.10938C42.2724 4.15625 42.1036 4.29375 42.0067 4.47188C41.9442 4.5875 41.9349 4.64375 41.9442 4.83125C41.9567 5.09375 42.0474 5.25938 42.2567 5.39688C42.3724 5.475 42.4161 5.48438 42.6411 5.48438C42.8661 5.48438 42.9099 5.475 43.0255 5.39688C43.2099 5.275 43.3192 5.09688 43.338 4.89063C43.3567 4.65 43.3255 4.525 43.2036 4.36563C43.0286 4.13438 42.7411 4.0375 42.4599 4.10938Z" fill="black"/>
<path d="M33.7353 4.28738C33.3572 4.37175 33.1135 4.7905 33.2166 5.17488C33.2603 5.33738 33.4478 5.55613 33.6072 5.628C33.6822 5.66238 33.8072 5.68738 33.9072 5.68738C34.1291 5.68738 34.301 5.60613 34.4447 5.4405C34.6166 5.23738 34.6635 4.9905 34.5791 4.74675C34.4603 4.41238 34.0822 4.20613 33.7353 4.28738Z" fill="black"/>
<path d="M45.3382 4.54362C45.1351 4.59987 44.9913 4.71862 44.8945 4.91237C44.7601 5.18425 44.7976 5.47487 44.9945 5.69362C45.2101 5.93425 45.5257 6.003 45.8132 5.87175C45.9882 5.79362 46.082 5.70612 46.1601 5.55612C46.4476 4.99675 45.9413 4.378 45.3382 4.54362Z" fill="black"/>
<path d="M30.822 4.85613C30.5501 4.94363 30.3626 5.1655 30.3251 5.44363C30.2689 5.84988 30.6283 6.24988 31.0439 6.24988C31.6345 6.24675 31.9626 5.53738 31.5876 5.078C31.4095 4.86238 31.0876 4.76863 30.822 4.85613Z" fill="black"/>
<path d="M48.1095 5.23112C47.9408 5.29362 47.7314 5.51862 47.6877 5.69049C47.6189 5.94049 47.7033 6.26237 47.8814 6.42799C47.9845 6.52799 48.2158 6.62487 48.347 6.62487C48.9658 6.62799 49.3095 5.86549 48.8939 5.41237C48.7283 5.22487 48.3564 5.14049 48.1095 5.23112Z" fill="black"/>
<path d="M27.9538 5.666C27.4444 5.89725 27.3632 6.55975 27.8038 6.89412C28.4069 7.3535 29.1976 6.6785 28.8538 5.99725C28.7257 5.74725 28.5601 5.64412 28.2726 5.63475C28.1319 5.6285 28.0132 5.641 27.9538 5.666Z" fill="black"/>
<path d="M50.8942 6.14133C50.413 6.3132 50.2817 6.9757 50.6599 7.33508C51.1099 7.76008 51.8474 7.44133 51.8442 6.82258C51.8442 6.59133 51.7661 6.41945 51.5974 6.27883C51.3911 6.1007 51.1442 6.0507 50.8942 6.14133Z" fill="black"/>
<path d="M25.3572 6.65312C24.8165 6.78749 24.604 7.41874 24.9634 7.81874C25.1103 7.98124 25.2822 8.06249 25.4947 8.06249C26.2509 8.06562 26.479 7.04999 25.7978 6.70937C25.6759 6.64999 25.479 6.62499 25.3572 6.65312Z" fill="black"/>
<path d="M53.5627 7.30027C53.2814 7.42214 53.122 7.65652 53.122 7.95027C53.122 8.36589 53.4189 8.66589 53.8283 8.66589C54.2377 8.66589 54.5314 8.36902 54.5314 7.95339C54.5314 7.64714 54.3439 7.37839 54.0658 7.28464C53.9189 7.23777 53.6939 7.24402 53.5627 7.30027Z" fill="black"/>
<path d="M22.6154 7.94959C22.3216 8.05584 22.156 8.29647 22.156 8.61834C22.156 9.39334 23.2404 9.59959 23.5279 8.88397C23.5529 8.82147 23.5654 8.69959 23.556 8.56522C23.5466 8.38397 23.5279 8.32147 23.4529 8.21209C23.2685 7.95584 22.9154 7.84334 22.6154 7.94959Z" fill="black"/>
<path d="M34.735 8.10284C34.5413 8.25596 31.6725 10.1653 31.0006 10.5935C28.8319 11.9716 28.3569 12.3935 27.8913 13.3591C27.6538 13.8528 27.6131 14.0028 27.6131 14.3903C27.61 14.6778 27.6225 14.7622 27.6819 14.9153C27.8694 15.381 28.3131 15.6966 28.8506 15.7403C29.0881 15.7622 29.0725 15.781 29.11 15.4216C29.1538 15.0122 29.2913 14.5028 29.4756 14.0622C29.9319 12.981 30.7131 12.1153 32.3131 10.9216C33.2038 10.2591 33.3694 10.131 33.685 9.86846C33.8475 9.73409 33.9913 9.62784 34.0038 9.63096C34.0163 9.63721 34.4413 10.0153 34.9444 10.4716C37.1756 12.4997 37.3694 12.6466 39.0538 13.5403C39.3319 13.6872 39.6475 13.8622 39.7569 13.931C39.8663 13.9966 40.4756 14.3716 41.11 14.7653C43.0288 15.9466 43.6381 16.331 44.4163 16.8528C46.7975 18.4497 47.785 19.4185 48.485 20.8591C48.9444 21.7997 49.1319 22.6091 49.1319 23.656C49.1319 25.1716 48.835 25.7903 48.01 25.9872C47.8194 26.0341 47.7038 26.0341 46.9006 25.9997C43.9069 25.8685 40.9475 26.3747 36.735 27.7403C35.0194 28.2935 34.3319 28.4966 33.1288 28.7966C32.2444 29.0153 30.8506 29.3091 30.31 29.3872C29.2881 29.5403 28.3381 29.331 27.5631 28.7872C27.2631 28.5778 26.7944 28.0872 26.5694 27.7497C25.8225 26.631 25.4069 24.9122 25.5288 23.4685C25.6006 22.6528 25.7788 21.9028 26.085 21.1278C26.5163 20.0341 27.0131 19.3872 27.7288 18.9872C27.8975 18.8935 28.4413 18.6872 28.5225 18.6872C28.5413 18.6872 28.5725 18.7466 28.5975 18.8185C28.6319 18.9278 28.6413 19.5622 28.6569 22.2185L28.6725 25.4841L28.7444 25.6153C28.8788 25.8716 29.1663 25.9872 29.61 25.9622C30.4663 25.9185 30.6944 25.3216 30.6444 23.2747L30.6256 22.4716L30.8538 22.3622C31.0881 22.2528 31.3381 22.1872 31.7663 22.1247C31.9038 22.106 32.0694 22.0747 32.135 22.0591C32.2475 22.0278 32.2506 22.0247 32.2506 21.8778C32.2506 21.7966 32.2413 21.6185 32.2288 21.4841L32.21 21.2403L31.3569 21.2622L30.5038 21.2841L30.485 21.2122C30.4413 21.006 30.3694 20.1935 30.3538 19.6685C30.3381 19.1778 30.3444 19.0153 30.3881 18.7716C30.5163 18.0685 30.8631 17.6747 31.6194 17.3778C32.0444 17.2091 32.8538 17.0466 34.235 16.8435C34.6944 16.7778 35.0756 16.7153 35.085 16.706C35.0944 16.6997 35.0663 16.6747 35.0256 16.6528C34.9881 16.6341 34.7225 16.4622 34.4381 16.2716C33.5631 15.6872 33.46 15.656 32.3913 15.656C29.8256 15.656 27.5163 16.456 25.5475 18.0216C24.6944 18.7028 23.8944 19.6341 23.3819 20.5466C22.8538 21.4872 22.4913 22.6435 22.3631 23.7966C22.2131 25.1341 22.3006 26.256 22.6256 27.2028C23.3288 29.2341 25.0225 30.6653 27.0506 30.9372C27.235 30.9622 27.535 30.9716 27.8944 30.9591C28.3756 30.9466 28.5319 30.9278 29.0006 30.831C30.5256 30.5122 33.9506 29.6778 36.0475 29.1091C39.1225 28.2778 40.7694 27.9716 43.1881 27.7747C43.9225 27.7153 46.0006 27.7278 46.735 27.7935C49.11 28.006 51.36 28.5372 52.7506 29.2122C54.5256 30.0747 55.31 31.456 55.2413 33.6091C55.2163 34.3997 55.1038 34.9747 54.8381 35.6372C54.0444 37.6466 52.2038 39.0466 50.1256 39.2247C49.4163 39.2841 48.6475 39.1841 47.9569 38.9372C47.7006 38.8466 47.5819 38.7841 47.1381 38.5028L46.9756 38.3997L46.385 38.7466L45.7913 39.0935H45.5756C45.2225 39.0903 45.0413 38.9778 44.9006 38.6716C44.8413 38.5435 44.8288 38.4466 44.8194 38.1216L44.8069 37.7278L44.9194 37.6622C44.9819 37.6247 45.2475 37.5028 45.5069 37.3872C46.085 37.1372 46.6256 36.8685 46.9225 36.6903C47.7538 36.1872 48.1319 35.5997 48.0319 34.9778C47.9288 34.3466 47.41 34.0528 46.3913 34.0528C45.6944 34.056 45.1788 34.1966 44.6538 34.5372C43.6506 35.1841 42.9756 36.5341 42.9163 38.0091C42.8975 38.4653 42.8975 38.4747 42.7913 38.6497C42.5756 39.0091 42.3538 39.156 42.0225 39.1622C41.5444 39.1685 41.46 38.9622 41.5975 38.1091C41.7413 37.2153 41.6381 36.7185 41.235 36.3466C40.9194 36.056 40.4881 35.9497 39.9756 36.0372C39.81 36.0653 39.6694 36.0872 39.6663 36.0841C39.6444 36.0591 41.1788 34.9091 41.7569 34.5185C42.01 34.3466 42.2131 34.2028 42.21 34.1966C42.2038 34.1935 41.9256 34.2091 41.5913 34.2341C41.2569 34.2591 40.9569 34.281 40.9194 34.281C40.8131 34.281 39.585 35.3185 38.7756 36.0935L38.4069 36.4435V36.3372C38.4069 36.0185 38.7038 33.156 38.8319 32.2403C38.8506 32.1153 38.8444 32.0935 38.7975 32.0935C38.6975 32.0935 36.7381 32.6216 36.7069 32.6591C36.6725 32.6997 36.51 36.4028 36.485 37.6872C36.4631 38.8591 36.4038 39.3247 36.2225 39.706C36.0506 40.0685 35.8069 40.256 35.5038 40.2591C35.1819 40.2622 35.0444 40.0747 34.9975 39.5685C34.9819 39.4028 34.96 38.3622 34.9475 37.256C34.9381 36.1528 34.9225 35.2497 34.9163 35.2497C34.86 35.2497 33.5694 35.581 33.1288 35.7091L32.96 35.756L32.9819 36.0591L33.0038 36.3591L32.9225 36.2278C32.7663 35.9716 32.3819 35.8966 31.8725 36.0278C30.6569 36.3372 29.885 37.2216 29.6038 38.6122C29.5256 38.9997 29.5288 39.9622 29.6069 40.3591C29.9038 41.881 30.6881 42.706 31.7069 42.5653C32.3881 42.4685 32.8444 42.0716 33.36 41.1153C33.4413 40.9653 33.5131 40.8435 33.5225 40.8435C33.5319 40.8435 33.6163 40.9153 33.7131 41.0028C34.3038 41.5278 34.7475 41.6653 35.2381 41.4716C35.6756 41.2997 36.0381 41.0028 36.31 40.5966L36.4225 40.4278L36.4319 40.7716L36.4413 41.1153L36.635 41.0716C36.7413 41.0466 37.1256 40.9653 37.485 40.8935L38.1413 40.7622L38.1756 39.9341C38.1975 39.481 38.2288 38.7872 38.2506 38.3966L38.2913 37.6841L38.5288 37.481C39.0413 37.0403 39.4631 36.9872 39.6663 37.3372C39.7663 37.5091 39.785 37.781 39.735 38.3622C39.6569 39.2435 39.7538 39.681 40.1006 40.0278C40.3788 40.306 40.7506 40.4216 41.2975 40.3966C41.9788 40.3685 42.4506 40.106 42.8788 39.5122L43.0725 39.2497L43.185 39.4403C43.4881 39.956 44.035 40.2247 44.7819 40.231C45.2163 40.2341 45.3475 40.1903 45.7913 39.8935L46.085 39.6966L46.2538 39.7747C47.3288 40.256 48.4881 40.4622 49.6069 40.3747C50.3444 40.3185 50.9038 40.206 51.6569 39.9622C52.9663 39.5403 53.935 38.9685 54.8163 38.0935C55.8913 37.0278 56.5631 35.7497 56.8319 34.2653C56.9006 33.8841 56.9256 32.9372 56.8788 32.4935C56.6288 30.1653 55.5475 28.2216 53.8913 27.1403C53.1475 26.6528 52.2288 26.3372 51.2038 26.2185C51.0506 26.1997 50.8725 26.1716 50.8131 26.1528C50.7006 26.1185 50.1194 25.9028 50.1006 25.8872C50.0944 25.8841 50.1819 25.6028 50.2913 25.2591C50.5225 24.5528 50.6881 23.9153 50.7881 23.3278C50.8881 22.7372 50.8881 21.8466 50.7881 21.3497C50.5913 20.3747 50.1381 19.4903 49.2944 18.4372C48.9038 17.9497 48.0631 17.0935 47.61 16.7216C46.8225 16.0716 45.8631 15.4122 44.6756 14.706C42.9881 13.6997 42.2975 13.3528 39.5944 12.1466C38.385 11.606 37.46 11.1747 37.0944 10.9778C36.1319 10.4528 35.51 9.85909 35.1569 9.12159C35.0288 8.84971 34.8756 8.31846 34.8756 8.13721C34.8756 8.01221 34.86 8.00909 34.735 8.10284ZM46.885 34.8122C46.96 34.8966 46.9694 34.931 46.9694 35.1341C46.9663 35.531 46.7569 35.906 46.2756 36.3622C45.8788 36.7341 45.21 37.156 45.01 37.156C44.9131 37.156 44.9163 37.0778 45.035 36.7872C45.3788 35.9247 46.0631 34.9247 46.4381 34.7403C46.5975 34.6622 46.7756 34.6903 46.885 34.8122ZM32.7819 36.681C32.9881 36.7841 33.0194 36.8716 33.0413 37.4122C33.0538 37.6747 33.0913 38.3653 33.1319 38.9466C33.2069 40.1091 33.2006 40.231 33.0444 40.5435C32.8819 40.8685 32.6663 41.056 32.3819 41.1185C32.0913 41.1841 31.8788 41.0372 31.6881 40.6435C31.46 40.1685 31.3631 39.6247 31.3663 38.8435C31.3663 38.2216 31.435 37.8091 31.5975 37.4216C31.8475 36.8185 32.385 36.481 32.7819 36.681Z" fill="black"/>
<path d="M56.1096 8.6816C55.7346 8.86285 55.5877 9.29098 55.7752 9.65973C55.8939 9.89723 56.0627 10.0097 56.3252 10.0254C56.5783 10.041 56.7252 9.9941 56.8939 9.83785C57.2346 9.52223 57.1877 9.01598 56.7877 8.73785C56.6127 8.61285 56.3033 8.59098 56.1096 8.6816Z" fill="black"/>
<path d="M20.1479 9.41842C19.8261 9.53717 19.6261 9.79655 19.6261 10.0903C19.6261 10.2778 19.7448 10.5309 19.8823 10.634C20.2198 10.8934 20.6136 10.8684 20.8823 10.5684C21.1229 10.3028 21.1167 9.87467 20.8636 9.59967C20.7042 9.42155 20.3667 9.33717 20.1479 9.41842Z" fill="black"/>
<path d="M58.7038 10.2156C58.3601 10.3031 58.157 10.5687 58.157 10.9281C58.1601 11.3375 58.4413 11.625 58.8445 11.625C59.4757 11.625 59.7976 10.8812 59.3663 10.4156C59.2288 10.2656 58.9007 10.1656 58.7038 10.2156Z" fill="black"/>
<path d="M17.7407 11.1066C17.5564 11.1753 17.4189 11.3003 17.3251 11.4847C17.2532 11.6347 17.2439 11.6847 17.2595 11.8503C17.3126 12.4566 18.0782 12.7253 18.4814 12.2816C18.9751 11.7347 18.4251 10.8628 17.7407 11.1066Z" fill="black"/>
<path d="M61.0229 12.0029C60.4729 12.1279 60.2698 12.7842 60.6542 13.1967C60.9604 13.5279 61.5229 13.4685 61.7667 13.0779C61.8479 12.9467 61.8604 12.8967 61.8604 12.706C61.8573 12.4498 61.8073 12.3279 61.6323 12.1685C61.4667 12.0185 61.2385 11.956 61.0229 12.0029Z" fill="black"/>
<path d="M15.5785 12.9656C15.2191 13.0531 15.016 13.3406 15.0378 13.725C15.0535 13.9875 15.1628 14.1594 15.391 14.2906C15.5285 14.3656 15.5753 14.375 15.7722 14.3688C16.0597 14.3563 16.2253 14.2531 16.3535 14.0031C16.566 13.5813 16.3691 13.1156 15.9253 12.9844C15.7566 12.9344 15.7222 12.9313 15.5785 12.9656Z" fill="black"/>
<path d="M63.047 14.0128C62.7189 14.1565 62.5345 14.5315 62.6252 14.8721C62.6814 15.0784 62.9033 15.3003 63.1189 15.3628C63.6689 15.5221 64.1689 14.994 63.9877 14.4471C63.9283 14.269 63.7595 14.0909 63.5877 14.0159C63.447 13.9596 63.1752 13.9565 63.047 14.0128Z" fill="black"/>
<path d="M13.3916 15.0717C13.0541 15.2248 12.8854 15.5779 12.9823 15.9154C13.1166 16.3686 13.5791 16.5654 14.0041 16.3498C14.2479 16.2279 14.3541 16.0592 14.3698 15.7873C14.3791 15.6061 14.3698 15.5561 14.2916 15.4092C14.2354 15.3029 14.1541 15.2029 14.0698 15.1436C13.9541 15.0623 13.901 15.0467 13.7104 15.0404C13.5698 15.0342 13.451 15.0467 13.3916 15.0717Z" fill="black"/>
<path d="M65.0161 16.1686C64.5692 16.3623 64.4317 16.9186 64.7442 17.2811C64.9723 17.5498 65.3442 17.6123 65.6473 17.4373C66.1473 17.1498 66.1098 16.4248 65.5817 16.1842C65.4317 16.1154 65.1536 16.1092 65.0161 16.1686Z" fill="black"/>
<path d="M33.7003 17.2315C33.3378 17.3158 33.044 17.5283 32.919 17.794C32.8253 17.994 32.8253 18.1315 32.919 18.3315C33.1409 18.8096 33.9503 18.9846 34.5815 18.6908C35.3534 18.3315 35.3472 17.5752 34.5722 17.2815C34.344 17.194 33.9597 17.1721 33.7003 17.2315Z" fill="black"/>
<path d="M11.4723 17.3308C10.8629 17.637 10.9723 18.5058 11.6442 18.6558C12.0754 18.7526 12.5004 18.4245 12.5004 17.9964C12.5004 17.7776 12.4348 17.6183 12.2785 17.462C12.0504 17.2339 11.766 17.187 11.4723 17.3308Z" fill="black"/>
<path d="M38.9067 17.3692C38.3973 17.3974 36.9504 17.5692 36.9192 17.6036C36.916 17.6067 36.8754 17.8849 36.8317 18.2192C36.7879 18.5536 36.741 18.8786 36.7317 18.9411L36.716 19.0536L36.4973 19.0692C36.3785 19.0786 36.2754 19.0911 36.2692 19.0974C36.2629 19.1036 36.2504 19.1974 36.2442 19.3067L36.2317 19.5036L36.4442 19.4817C36.6535 19.463 36.6567 19.463 36.6567 19.5349C36.6567 19.5755 36.6067 20.038 36.5504 20.563C36.491 21.088 36.4254 21.6974 36.4067 21.9224C36.3192 22.8661 35.8973 23.4661 35.316 23.4755C35.0973 23.4786 35.0254 23.4411 34.9504 23.2911C34.8973 23.1817 34.891 23.1005 34.8973 22.2661C34.9035 21.7661 34.9223 20.8911 34.941 20.3192C34.9598 19.7474 34.9692 19.2724 34.9629 19.263C34.9317 19.2317 33.1192 19.5942 33.066 19.6442C33.041 19.6692 33.2035 22.2536 33.2817 23.063C33.3598 23.8599 33.616 24.3442 34.0723 24.5474C34.4004 24.6974 34.8098 24.663 35.2723 24.4536C35.3942 24.3974 35.5629 24.3036 35.6442 24.2474C35.8504 24.1067 36.1535 23.7911 36.266 23.5974C36.3192 23.5099 36.3692 23.438 36.3785 23.438C36.3879 23.438 36.4285 23.5192 36.4692 23.6161C36.5817 23.888 36.8098 24.1036 37.0785 24.1849C37.541 24.3286 37.7535 24.2505 38.2535 23.7536C38.4348 23.5724 38.6067 23.3786 38.6348 23.3224L38.6879 23.2224L38.4754 23.238C38.1285 23.2661 37.9692 23.1411 37.9692 22.8442C37.9692 22.6974 38.2567 21.1661 38.4879 20.0849C38.5629 19.7286 38.6254 19.4286 38.6254 19.4224C38.6254 19.413 38.8129 19.4067 39.0442 19.4067H39.4629L39.5004 19.2505C39.5598 19.0005 39.5598 19.0005 39.1098 19.0005H38.716L38.7379 18.8911C38.7473 18.8317 38.8317 18.4661 38.9192 18.0786C39.0098 17.6911 39.0754 17.3692 39.066 17.3661C39.0567 17.363 38.9848 17.363 38.9067 17.3692Z" fill="black"/>
<path d="M66.9313 18.4347C66.6688 18.4878 66.4313 18.7316 66.3782 19.0097C66.2688 19.6066 66.8594 20.0378 67.4094 19.7566C67.6532 19.6347 67.7594 19.4691 67.775 19.1909C67.7844 19.0097 67.775 18.9566 67.7063 18.8191C67.6125 18.6316 67.4657 18.5128 67.2625 18.4503C67.1032 18.4034 67.1032 18.4034 66.9313 18.4347Z" fill="black"/>
<path d="M9.87197 19.6654C9.6876 19.7342 9.58135 19.8279 9.48447 20.0061C9.17197 20.5717 9.67822 21.2029 10.3063 21.0311C10.4845 20.9842 10.7001 20.7842 10.7688 20.6061C10.9751 20.0623 10.4095 19.4654 9.87197 19.6654Z" fill="black"/>
<path d="M68.3506 20.9558C68.16 21.0495 68.0443 21.187 67.9818 21.3964C67.8193 21.9308 68.31 22.4245 68.8537 22.2683C69.0756 22.2058 69.21 22.0902 69.3006 21.8902C69.3975 21.687 69.3975 21.4964 69.3006 21.2964C69.1162 20.9089 68.7256 20.7683 68.3506 20.9558Z" fill="black"/>
<path d="M8.35903 22.1941C8.11215 22.2816 7.9434 22.5097 7.91528 22.791C7.87153 23.2222 8.18403 23.5691 8.6184 23.5691C8.9809 23.566 9.23403 23.366 9.30903 23.0253C9.37778 22.716 9.22153 22.3785 8.94028 22.2285C8.79028 22.1503 8.5309 22.1347 8.35903 22.1941Z" fill="black"/>
<path d="M69.8659 23.4718C69.6315 23.528 69.4409 23.703 69.3597 23.9405C69.2722 24.1874 69.319 24.4218 69.4972 24.628C69.6378 24.7936 69.8128 24.8749 70.0315 24.8749C70.5253 24.8749 70.869 24.3905 70.7065 23.928C70.5847 23.5874 70.2159 23.3874 69.8659 23.4718Z" fill="black"/>
<path d="M7.12185 24.8252C6.70935 24.9721 6.52497 25.444 6.7281 25.8315C6.85622 26.0784 7.2031 26.2534 7.45935 26.2034C7.82497 26.1346 8.06247 25.8534 8.06247 25.494C8.05935 25.0034 7.5781 24.6627 7.12185 24.8252Z" fill="black"/>
<path d="M70.9689 26.1723C70.4439 26.341 70.2908 27.0098 70.7001 27.3691C70.9376 27.5785 71.2095 27.6191 71.4908 27.4879C71.7595 27.3598 71.9376 27.0473 71.8939 26.7723C71.822 26.3285 71.3814 26.041 70.9689 26.1723Z" fill="black"/>
<path d="M6.17171 27.5282C5.81234 27.6157 5.60921 27.9032 5.63109 28.2876C5.64671 28.5626 5.75609 28.7282 5.99671 28.8501C6.29359 29.0001 6.60609 28.9501 6.84046 28.7157C6.97796 28.5813 7.04046 28.4282 7.04046 28.2313C7.04046 27.9157 6.83109 27.6407 6.52484 27.547C6.34984 27.497 6.31546 27.4938 6.17171 27.5282Z" fill="black"/>
<path d="M71.8631 28.9531C71.685 29.0156 71.5912 29.0937 71.485 29.2656C71.4037 29.3969 71.3912 29.4469 71.3912 29.6437C71.3912 29.8437 71.4006 29.8844 71.485 30.0031C71.5381 30.0781 71.6506 30.1812 71.735 30.2344C71.8631 30.3156 71.9162 30.3281 72.0912 30.3281C72.3943 30.325 72.6037 30.2 72.7318 29.9469C73.0162 29.3812 72.4537 28.7406 71.8631 28.9531Z" fill="black"/>
<path d="M5.30367 30.3568C5.00367 30.4693 4.82867 30.7224 4.8318 31.0474C4.8318 31.5505 5.30367 31.8724 5.78492 31.7037C6.2693 31.5318 6.40367 30.9099 6.03805 30.5443C5.84742 30.3505 5.5318 30.2724 5.30367 30.3568Z" fill="black"/>
<path d="M72.5198 31.7967C72.0604 31.9592 71.9104 32.5999 72.251 32.9592C72.3354 33.0499 72.5198 33.1436 72.6667 33.1717C72.9542 33.228 73.3167 33.0186 73.4229 32.7342C73.5073 32.5217 73.476 32.2249 73.3573 32.0561C73.176 31.7967 72.8229 31.6874 72.5198 31.7967Z" fill="black"/>
<path d="M29.1414 31.8469C26.7945 32.1157 24.5914 33.3001 23.007 35.1407C21.7414 36.6126 21.0164 38.2282 20.7789 40.1095C20.7195 40.572 20.7289 41.6532 20.7945 42.1095C20.9914 43.4657 21.5289 44.6282 22.3664 45.5001C23.0726 46.2376 23.957 46.7532 24.932 46.997C25.7976 47.2157 26.8445 47.2376 27.7789 47.0595C28.807 46.8657 32.5133 45.9595 34.3445 45.4532C36.6758 44.8126 37.3101 44.6407 38.2445 44.4095C42.707 43.2938 45.782 42.9626 49.1726 43.2345C51.3039 43.4032 52.6914 43.6782 53.9695 44.1782C54.7476 44.4845 55.6476 44.997 56.2508 45.4813C56.3976 45.6001 56.5351 45.7095 56.557 45.7282C56.607 45.7688 56.6351 45.7282 56.8445 45.3563C57.2414 44.6407 57.3633 43.9407 57.1758 43.4157C57.0039 42.9251 56.532 42.5376 55.8914 42.3501C55.1133 42.122 53.2445 41.7688 51.9976 41.6126C48.5726 41.1845 45.8383 41.3251 42.2633 42.1095C40.6726 42.4595 39.2945 42.8376 36.2039 43.7813C32.8851 44.7938 31.4351 45.1688 29.532 45.5001C28.1101 45.7501 27.0758 45.6095 26.1601 45.0407C25.857 44.8532 25.2851 44.2876 25.0664 43.9595C24.5914 43.247 24.2414 42.2501 24.0601 41.0938C23.9789 40.5501 23.9476 39.5845 23.9976 39.0813C24.1351 37.7657 24.6414 36.5345 25.4445 35.5782C26.1164 34.7751 27.0539 34.0438 27.9758 33.6095C29.3164 32.9782 30.0258 33.2501 31.0601 34.7938C31.1508 34.9282 31.2351 35.0251 31.2476 35.0126C31.3383 34.9063 32.107 33.697 32.1695 33.5626C32.3945 33.0782 32.3226 32.5969 31.9726 32.2719C31.7258 32.0407 31.4726 31.9407 30.9383 31.8594C30.6164 31.8094 29.5289 31.8001 29.1414 31.8469Z" fill="black"/>
<path d="M4.77591 33.2187C4.35091 33.3469 4.14466 33.8406 4.35091 34.2344C4.46341 34.4437 4.74466 34.625 4.96028 34.625C5.22903 34.625 5.52278 34.4406 5.62903 34.2062C5.70403 34.0406 5.70403 33.7719 5.62903 33.6062C5.48841 33.2969 5.09778 33.1219 4.77591 33.2187Z" fill="black"/>
<path d="M73.0478 34.6535C72.5853 34.7691 72.3478 35.2691 72.5635 35.6878C72.776 36.1003 73.3697 36.1878 73.701 35.8566C74.0478 35.5097 73.9385 34.9222 73.4853 34.6972C73.3947 34.6503 73.1572 34.6285 73.0478 34.6535Z" fill="black"/>
<path d="M4.3912 36.15C4.13183 36.275 3.96933 36.5281 3.96933 36.8125C3.96933 37.2156 4.26933 37.5125 4.67245 37.5125C5.08183 37.5125 5.3912 37.2031 5.38808 36.7906C5.38495 36.5437 5.26933 36.3406 5.05683 36.2093C4.86308 36.0875 4.57558 36.0625 4.3912 36.15Z" fill="black"/>
<path d="M73.0786 37.6223C72.8348 37.7317 72.6567 38.0067 72.6567 38.266C72.6567 38.5317 72.8598 38.8285 73.1098 38.9223C73.3192 39.0035 73.6129 38.9754 73.7817 38.8598C74.2254 38.5535 74.1723 37.8723 73.6848 37.6223C73.5317 37.5442 73.2473 37.5442 73.0786 37.6223Z" fill="black"/>
<path d="M4.45406 39.0284C3.92593 39.1628 3.72906 39.7941 4.08843 40.1941C4.31968 40.4503 4.63843 40.5097 4.94156 40.3503C5.35406 40.1378 5.46031 39.6284 5.16656 39.2847C4.98531 39.0722 4.69156 38.9659 4.45406 39.0284Z" fill="black"/>
<path d="M73.0913 40.5125C72.9163 40.575 72.7913 40.6781 72.6976 40.8375C72.6257 40.9562 72.6101 41.0219 72.6101 41.1906C72.6101 41.3625 72.6257 41.4187 72.7038 41.5469C72.7632 41.6437 72.857 41.7375 72.9507 41.7969C73.082 41.8781 73.1351 41.8906 73.3101 41.8906C73.6382 41.8875 73.8538 41.7406 73.9851 41.4281C74.2101 40.8906 73.6476 40.3125 73.0913 40.5125Z" fill="black"/>
<path d="M4.46952 42.0091C3.98515 42.2654 3.95702 42.9404 4.41327 43.2404C4.5289 43.3185 4.57265 43.3279 4.79765 43.3279C5.02265 43.3279 5.0664 43.3185 5.18202 43.2404C5.2539 43.1935 5.35077 43.0966 5.39765 43.0248C5.47577 42.9091 5.48515 42.8654 5.48515 42.6404C5.48515 42.4154 5.47577 42.3716 5.39765 42.256C5.26015 42.0466 5.09452 41.956 4.83202 41.9435C4.64452 41.9341 4.58827 41.9435 4.46952 42.0091Z" fill="black"/>
<path d="M72.6948 43.4564C72.4292 43.5876 72.3073 43.7907 72.3073 44.097C72.3073 44.3126 72.3886 44.4845 72.5667 44.6345C73.023 45.0251 73.723 44.6939 73.7198 44.0876C73.7167 43.5564 73.1698 43.2189 72.6948 43.4564Z" fill="black"/>
<path d="M4.99127 44.8567C4.69752 44.9629 4.52252 45.2161 4.52252 45.5317C4.52252 46.0754 5.07252 46.4098 5.5569 46.1598C5.7069 46.0817 5.7944 45.9879 5.87252 45.8129C6.12877 45.2504 5.57565 44.6504 4.99127 44.8567Z" fill="black"/>
<path d="M43.4011 45.7088L43.2198 45.7213V45.915C43.2198 46.0213 43.2417 47.0088 43.2667 48.1088C43.2917 49.2088 43.3136 50.165 43.3136 50.2307V50.3525L44.1167 50.3338C44.5573 50.3213 44.9261 50.3057 44.9323 50.2963C44.9511 50.2775 44.8854 46.4744 44.8573 46.0057L44.8386 45.6869L44.2104 45.6932C43.8636 45.6963 43.4979 45.7025 43.4011 45.7088Z" fill="black"/>
<path d="M47.4262 45.8189C47.4199 45.8408 47.3574 46.2814 47.2856 46.797C47.2168 47.3126 47.0793 48.322 46.9793 49.0376C46.8824 49.7564 46.8074 50.3501 46.8168 50.3564C46.8262 50.3658 48.1699 50.5564 48.3574 50.572C48.4168 50.5783 48.4324 50.4814 48.6324 49.047C48.8918 47.1689 49.0324 46.1283 49.0418 46.047C49.0481 45.9908 48.9949 45.9783 48.3137 45.8845C47.4762 45.7689 47.4418 45.7658 47.4262 45.8189Z" fill="black"/>
<path d="M40.166 45.8723C39.766 45.9004 39.4347 45.9316 39.4254 45.941C39.4129 45.9535 39.6441 49.5785 39.7066 50.2941L39.7254 50.541L39.9347 50.5223C40.0472 50.5129 40.4129 50.4879 40.7441 50.466L41.3441 50.4254V50.3473C41.3441 50.3035 41.2941 49.5473 41.2347 48.6723C41.1754 47.7941 41.1129 46.8379 41.0941 46.5473C41.0504 45.8379 41.0441 45.8129 40.9597 45.816C40.9222 45.8191 40.566 45.8441 40.166 45.8723Z" fill="black"/>
<path d="M72.1227 46.3375C71.8915 46.4594 71.7759 46.6282 71.7571 46.875C71.7102 47.5282 72.4415 47.9188 72.9165 47.4969C73.0821 47.3532 73.1634 47.1688 73.1602 46.9438C73.154 46.4 72.6102 46.0813 72.1227 46.3375Z" fill="black"/>
<path d="M36.1415 46.4126C35.7477 46.4782 35.4227 46.5376 35.4196 46.5407C35.4102 46.5501 36.154 51.0688 36.1665 51.0813C36.1727 51.0876 36.5321 51.0313 36.9696 50.9563L37.7665 50.8251L37.7571 50.7313C37.7509 50.6813 37.5852 49.6719 37.3884 48.4876C37.1915 47.3001 37.0321 46.3219 37.0321 46.3063C37.0321 46.2657 36.904 46.2813 36.1415 46.4126Z" fill="black"/>
<path d="M32.3753 47.6C32.316 47.6156 32.1066 47.6781 31.9128 47.7375C31.2597 47.9406 31.0128 48.1031 30.9378 48.3718C30.8691 48.625 31.0222 49.0718 31.5691 50.2343C31.7066 50.525 31.9441 51.025 32.0941 51.3437C32.4035 52.0062 32.641 52.575 32.8191 53.0937C33.0503 53.7687 33.2566 54.0781 33.5785 54.225C33.7128 54.2843 33.7816 54.2968 34.0628 54.2937C34.3691 54.2906 34.4628 54.2718 35.4378 54.0218C37.5628 53.475 38.8816 53.275 40.391 53.2718C42.2628 53.2687 43.7535 53.6093 45.3066 54.3937L45.8191 54.6531L45.8941 54.4781C45.9941 54.2531 46.1128 53.8406 46.1378 53.6218C46.1691 53.375 46.1097 53.0531 45.9941 52.8343C45.791 52.4562 45.3691 52.1968 44.6503 52.0156C43.7535 51.7906 43.0378 51.7093 42.3785 51.7593C41.6472 51.8125 39.5722 52.075 36.4222 52.5156C35.391 52.6593 34.4691 52.7843 34.3753 52.7968L34.2003 52.8187L34.1285 52.5875C34.0191 52.2406 32.9316 48.9156 32.6941 48.2L32.4847 47.5718L32.3753 47.6Z" fill="black"/>
<path d="M5.64138 47.7C5.57263 47.7281 5.457 47.8093 5.38513 47.8843C5.182 48.1 5.132 48.3906 5.25388 48.6562C5.382 48.9375 5.59138 49.075 5.89138 49.075C6.29138 49.075 6.62888 48.7406 6.62575 48.3468C6.62575 48.2156 6.52888 47.9843 6.42888 47.8812C6.257 47.6937 5.88825 47.6093 5.64138 47.7Z" fill="black"/>
<path d="M71.4223 49.0935C71.1566 49.1748 70.9566 49.4654 70.9566 49.7654C70.9566 50.1716 71.2566 50.4685 71.6691 50.4685C71.9598 50.4685 72.1723 50.3373 72.3004 50.0748C72.4629 49.7435 72.3629 49.3654 72.0598 49.1654C71.9566 49.0966 71.8879 49.0779 71.7223 49.0716C71.6098 49.0685 71.4754 49.0779 71.4223 49.0935Z" fill="black"/>
<path d="M6.51605 50.4966C6.27543 50.6059 6.09418 50.8778 6.09418 51.1372C6.09418 51.3872 6.28168 51.6778 6.51293 51.7841C6.6848 51.8622 6.96918 51.8622 7.11918 51.7841C7.57543 51.5497 7.66918 50.9778 7.3098 50.6341C7.10043 50.4372 6.7723 50.3778 6.51605 50.4966Z" fill="black"/>
<path d="M70.4321 51.8129C70.1914 51.8848 70.0039 52.0848 69.9383 52.3411C69.8196 52.7879 70.2664 53.2786 70.7227 53.2067C71.0946 53.1473 71.3446 52.8598 71.3446 52.4942C71.3414 52.0223 70.8789 51.6786 70.4321 51.8129Z" fill="black"/>
<path d="M7.63183 53.1904C7.40995 53.3029 7.25058 53.5654 7.25058 53.8216C7.25058 54.2341 7.54745 54.531 7.95683 54.531C8.18183 54.531 8.35683 54.456 8.4912 54.3029C8.5787 54.2029 8.68808 53.9373 8.68808 53.8279C8.68808 53.8091 8.6662 53.7185 8.6412 53.631C8.58183 53.4341 8.43495 53.2591 8.2662 53.1841C8.0912 53.1029 7.8037 53.106 7.63183 53.1904Z" fill="black"/>
<path d="M69.144 54.4503C68.7221 54.6065 68.544 55.0659 68.7471 55.4628C68.9502 55.8565 69.5034 55.969 69.8315 55.6815C70.1221 55.4253 70.169 55.0128 69.9409 54.6972C69.7752 54.469 69.4034 54.3565 69.144 54.4503Z" fill="black"/>
<path d="M9.07895 55.7373C9.0102 55.7623 8.90083 55.8342 8.83833 55.8967C8.67895 56.0529 8.61333 56.2311 8.63208 56.4686C8.67583 57.0748 9.42583 57.3404 9.83833 56.8936C9.99458 56.7248 10.0415 56.5779 10.0258 56.3248C10.0102 56.0623 9.8977 55.8936 9.6602 55.7717C9.46645 55.6748 9.27895 55.6654 9.07895 55.7373Z" fill="black"/>
<path d="M67.6313 56.9785C67.0844 57.1785 67.0313 57.9472 67.5438 58.266C67.8969 58.4847 68.3844 58.3191 68.5469 57.9253C68.6063 57.7847 68.6126 57.5253 68.5626 57.391C68.4282 57.041 67.9969 56.8472 67.6313 56.9785Z" fill="black"/>
<path d="M32.5948 57.8906V58.7812H32.7823H32.9698L32.9761 58.2812L32.9854 57.7781L33.4386 58.2969C33.8511 58.7656 33.8979 58.8125 33.9917 58.8125H34.0948V57.9219V57.0312H33.9073H33.7198L33.7136 57.5562L33.7042 58.0844L33.2386 57.5406C32.8386 57.075 32.7604 57 32.6854 57H32.5948V57.8906Z" fill="black"/>
<path d="M35.0317 57.0281C34.6567 57.15 34.4036 57.4969 34.4005 57.8906C34.3973 58.4594 34.7505 58.8125 35.3255 58.8125C35.8473 58.8094 36.2036 58.4438 36.2005 57.9063C36.2005 57.3813 35.8692 57.0313 35.3442 57.0125C35.2161 57.0063 35.0755 57.0125 35.0317 57.0281ZM35.5598 57.4375C35.7317 57.525 35.8286 57.6906 35.8255 57.9063C35.8255 58.2125 35.6411 58.425 35.3567 58.4563C34.8005 58.5188 34.5567 57.7656 35.0286 57.4469C35.1661 57.3563 35.3942 57.35 35.5598 57.4375Z" fill="black"/>
<path d="M37.61 57.0406C37.3757 57.15 37.2507 57.3937 37.31 57.6187C37.3538 57.775 37.5007 57.9094 37.76 58.0344C38.01 58.1531 38.0882 58.2469 38.0382 58.3594C37.9725 58.5 37.7913 58.5 37.5819 58.3594C37.5194 58.3156 37.46 58.2812 37.4538 58.2812C37.4475 58.2812 37.3975 58.3375 37.3444 58.4062C37.2444 58.5312 37.2444 58.5344 37.3007 58.6C37.4038 58.7156 37.6538 58.8125 37.8538 58.8125C38.0694 58.8125 38.2038 58.7594 38.3288 58.6281C38.4132 58.5375 38.4225 58.5094 38.4225 58.3125C38.4225 58.1094 38.4163 58.0906 38.3132 57.9844C38.2538 57.9219 38.1132 57.8281 38.0007 57.775C37.8882 57.7219 37.7725 57.6594 37.7444 57.6312C37.6788 57.5781 37.6725 57.4656 37.7257 57.4125C37.785 57.3531 37.9757 57.3687 38.0944 57.4406L38.2007 57.5062L38.3038 57.3875C38.36 57.3187 38.4007 57.25 38.3975 57.2344C38.3913 57.2156 38.3225 57.1625 38.2413 57.1125C38.0694 57.0062 37.7632 56.9719 37.61 57.0406Z" fill="black"/>
<path d="M40.8317 57.0501C40.6192 57.1189 40.3724 57.3689 40.2974 57.5907C40.188 57.9251 40.2661 58.3064 40.4974 58.5564C40.7786 58.8595 41.3661 58.9032 41.7411 58.647L41.8442 58.5782V58.1939V57.8126H41.4849H41.1255V57.9689V58.1251H41.313H41.5005V58.2501C41.5005 58.4064 41.4317 58.447 41.1724 58.4501C40.8505 58.4532 40.6536 58.2689 40.6349 57.9439C40.6224 57.7314 40.7036 57.5595 40.8724 57.447C41.0161 57.3501 41.2724 57.347 41.4411 57.4439L41.5661 57.5126L41.6817 57.397C41.8192 57.2595 41.8036 57.2126 41.5817 57.097C41.3942 57.0001 41.0536 56.9782 40.8317 57.0501Z" fill="black"/>
<path d="M42.6671 57.0532C42.6577 57.0844 42.5109 57.4532 42.3452 57.875C42.1765 58.2969 42.0327 58.6719 42.0202 58.7094C41.9984 58.7782 42.0046 58.7813 42.1984 58.7813H42.3984L42.439 58.6407L42.4796 58.5H42.7984H43.1202L43.164 58.6313L43.2109 58.7657L43.414 58.775L43.6202 58.7844L43.2702 57.9L42.9234 57.0157L42.8046 57.0063C42.714 56.9969 42.6827 57.0094 42.6671 57.0532ZM42.9077 57.9C42.9577 58.0407 42.989 58.1594 42.9765 58.1594C42.839 58.1813 42.6265 58.175 42.6265 58.1469C42.6265 58.1032 42.7952 57.625 42.8046 57.6375C42.8109 57.6438 42.8577 57.7625 42.9077 57.9Z" fill="black"/>
<path d="M38.6945 57.7437L38.7039 58.4594L38.7914 58.5719C38.9195 58.7406 39.082 58.8125 39.3289 58.8125C39.6382 58.8125 39.8195 58.7031 39.9226 58.4594C39.9601 58.3687 39.9695 58.2094 39.9695 57.6875V57.0312H39.7976H39.6257V57.5844C39.6257 58.2281 39.6007 58.3531 39.4632 58.425C39.3351 58.4906 39.1726 58.4594 39.1007 58.3531C39.057 58.2812 39.0476 58.175 39.0382 57.65L39.0257 57.0312H38.857H38.6851L38.6945 57.7437Z" fill="black"/>
<path d="M43.782 57.9061V58.7811H43.9695H44.157V58.4843C44.157 58.1874 44.157 58.1874 44.2351 58.1874C44.3007 58.1874 44.332 58.228 44.4538 58.4686C44.532 58.6249 44.6163 58.7593 44.6382 58.7686C44.6601 58.778 44.757 58.7811 44.8538 58.7749L45.0288 58.7655L44.8476 58.4561L44.6663 58.1468L44.782 58.0343C45.0195 57.8093 45.0288 57.4718 44.807 57.2311C44.6507 57.0624 44.5476 57.0311 44.1195 57.0311H43.782V57.9061ZM44.4663 57.4218C44.7101 57.5468 44.5913 57.8436 44.2976 57.8436H44.157V57.6093V57.3749H44.2663C44.3288 57.3749 44.4195 57.3968 44.4663 57.4218Z" fill="black"/>
<path d="M10.6251 58.2059C10.3188 58.3371 10.1501 58.6715 10.222 59.0028C10.3438 59.5621 11.0282 59.7528 11.4282 59.3371C11.7688 58.984 11.6563 58.3903 11.2126 58.2059C11.0657 58.1434 10.7688 58.1434 10.6251 58.2059Z" fill="black"/>
<path d="M65.9665 59.3591C65.8009 59.4123 65.6134 59.581 65.5477 59.7404C65.479 59.9029 65.4884 60.1716 65.5665 60.3341C65.6821 60.5716 65.954 60.7498 66.204 60.7498C66.5352 60.7498 66.8571 60.4654 66.9227 60.1185C66.979 59.8279 66.7509 59.4654 66.454 59.3623C66.2727 59.3029 66.1602 59.3029 65.9665 59.3591Z" fill="black"/>
<path d="M29.7444 59.8904C29.2131 60.0248 28.8038 60.4279 28.6444 60.9654C28.5725 61.2092 28.5788 61.6592 28.6569 61.9123C28.91 62.7279 29.7569 63.1623 30.6256 62.9185C30.8788 62.8467 31.0256 62.7623 31.2256 62.5685C31.5194 62.2873 31.6725 61.9623 31.71 61.5404C31.7694 60.8373 31.3444 60.1623 30.6975 59.9342C30.4569 59.8498 29.9881 59.8279 29.7444 59.8904ZM30.5225 60.5623C31.3413 60.9248 31.1788 62.2217 30.2975 62.3404C29.8663 62.3998 29.4944 62.206 29.3256 61.831C29.1819 61.506 29.2006 61.2092 29.385 60.9029C29.6163 60.5185 30.0975 60.3748 30.5225 60.5623Z" fill="black"/>
<path d="M39.5601 59.9C39.0382 60.0375 38.5945 60.4969 38.4726 61.0312C38.3757 61.4469 38.4726 61.975 38.7038 62.325C39.1195 62.95 39.9913 63.1687 40.7101 62.825C41.6476 62.3781 41.857 61.0469 41.1101 60.2969C40.7132 59.9 40.132 59.7531 39.5601 59.9ZM40.4038 60.575C40.5976 60.675 40.7945 60.9 40.8632 61.1C40.9351 61.325 40.9101 61.6531 40.8038 61.8625C40.5882 62.2875 40.0726 62.4687 39.6288 62.2812C39.4288 62.1937 39.2132 61.9625 39.1445 61.7594C39.0882 61.5969 39.0788 61.2906 39.1257 61.125C39.2726 60.5937 39.9038 60.3219 40.4038 60.575Z" fill="black"/>
<path d="M25.5007 61.406V62.9373H25.8132H26.1257L26.132 62.0498L26.1413 61.1654L26.3788 61.4341C26.5101 61.581 26.8663 61.9873 27.1695 62.3341L27.7226 62.9685H27.8945H28.0632V61.4373V59.906H27.7507H27.4382L27.432 60.8185L27.4226 61.731L26.6257 60.8029L25.8288 59.8748H25.6663H25.5007V61.406Z" fill="black"/>
<path d="M49.3911 59.9125C49.3754 59.9625 48.7504 62.8875 48.7504 62.9156C48.7504 62.9281 48.8973 62.9375 49.0754 62.9375H49.4004L49.4317 62.7875C49.4473 62.7062 49.5161 62.3625 49.5817 62.0219C49.6473 61.6844 49.7098 61.4062 49.7192 61.4062C49.7317 61.4062 49.8942 61.7531 50.0848 62.1781C50.3473 62.7656 50.4442 62.9531 50.4848 62.9531C50.5286 62.9531 50.6254 62.7656 50.8879 62.1812C51.0786 61.7594 51.2442 61.4031 51.2567 61.3906C51.2754 61.3687 51.2942 61.4437 51.4942 62.375L51.6098 62.9219L51.9317 62.9312C52.1067 62.9344 52.2504 62.9281 52.2504 62.9156C52.2536 62.9031 52.1004 62.2125 51.9161 61.3844L51.5786 59.875H51.4348H51.2942L50.9067 60.7719C50.6942 61.2687 50.5098 61.6844 50.4973 61.7C50.4848 61.7156 50.4504 61.6719 50.4223 61.6062C50.3942 61.5375 50.2161 61.1219 50.0254 60.6781L49.6786 59.875H49.5411C49.4598 59.875 49.4004 59.8906 49.3911 59.9125Z" fill="black"/>
<path d="M33.6257 61.4216V62.9373H33.9382H34.2507V62.4404V61.9435L34.5726 61.931C34.9445 61.9154 35.107 61.856 35.3226 61.6591C35.5257 61.4716 35.607 61.2654 35.607 60.9373C35.607 60.5998 35.5288 60.4091 35.3007 60.1935C35.0382 59.9435 34.8945 59.906 34.2038 59.906H33.6257V61.4216ZM34.6601 60.531C34.9882 60.6216 35.0757 61.0623 34.8038 61.256C34.7382 61.3029 34.6476 61.3248 34.482 61.3373L34.2507 61.3529V60.9466C34.2507 60.7248 34.2601 60.531 34.2726 60.5216C34.3038 60.4904 34.532 60.4966 34.6601 60.531Z" fill="black"/>
<path d="M36.0006 61.4185V62.9373H36.3131H36.6256V62.4216V61.906H36.76H36.8943L37.1568 62.4091C37.3006 62.6873 37.435 62.9185 37.4537 62.9248C37.4725 62.9341 37.6381 62.9341 37.8193 62.931L38.1506 62.9216L37.8256 62.3748C37.6475 62.0748 37.5006 61.8185 37.5006 61.8091C37.5006 61.7966 37.5537 61.7529 37.6193 61.7091C37.7631 61.6154 37.9256 61.3841 37.9725 61.206C38.0225 61.0216 38.0131 60.7435 37.9537 60.5623C37.885 60.3529 37.6443 60.0935 37.4318 59.9966C37.2787 59.9279 37.2193 59.9216 36.635 59.9123L36.0006 59.9029V61.4185ZM37.1756 60.5716C37.2787 60.6248 37.3756 60.7873 37.3756 60.906C37.3756 61.0185 37.2787 61.1873 37.1912 61.231C37.1475 61.256 37.0006 61.281 36.8662 61.2873L36.6256 61.2966V60.8935V60.4904L36.8537 60.506C36.9756 60.5154 37.1225 60.5435 37.1756 60.5716Z" fill="black"/>
<path d="M42.0632 61.4253V62.9441L42.807 62.9316C43.5476 62.9222 43.5476 62.9222 43.7257 62.8347C44.3101 62.5472 44.3945 61.7753 43.8851 61.3878C43.7538 61.2878 43.7538 61.2878 43.8195 61.2316C44.1007 60.9753 44.0851 60.4503 43.7882 60.1535C43.5695 59.9347 43.4382 59.9066 42.682 59.9066H42.0632V61.4253ZM43.1226 60.5191C43.3726 60.5691 43.4538 60.816 43.2851 61.0066C43.1976 61.1066 43.1851 61.1097 42.9476 61.1097H42.7038L42.6945 60.8472C42.6882 60.7035 42.6913 60.566 42.7007 60.541C42.7195 60.4972 42.9476 60.4847 43.1226 60.5191ZM43.3757 61.7097C43.5945 61.8378 43.582 62.1628 43.3538 62.2785C43.3163 62.2972 43.1507 62.3128 42.9882 62.3128H42.6882V61.9847V61.6566H42.9882C43.2132 61.6566 43.3101 61.6691 43.3757 61.7097Z" fill="black"/>
<path d="M44.7137 59.9216C44.7043 59.931 44.7012 60.6091 44.7074 61.431L44.7168 62.9216L45.5293 62.931L46.3449 62.9373V62.6248V62.3123H45.8449H45.3449V61.1091V59.906H45.0387C44.8699 59.906 44.7231 59.9123 44.7137 59.9216Z" fill="black"/>
<path d="M46.6872 61.4216V62.9373H47.5935H48.4997V62.6248V62.3123H47.9216H47.3435V61.9998V61.6873H47.781H48.2185V61.406V61.1248H47.781H47.3435V60.8123V60.4998H47.9216H48.4997V60.2029V59.906H47.5935H46.6872V61.4216Z" fill="black"/>
<path d="M12.5256 60.4814C11.8818 60.6564 11.7943 61.5064 12.3943 61.8002C12.8662 62.0314 13.4131 61.6877 13.4131 61.1627C13.4131 60.6939 12.9787 60.3596 12.5256 60.4814Z" fill="black"/>
<path d="M64.2355 61.5531C63.8824 61.6312 63.673 61.8375 63.6137 62.1656C63.5605 62.4594 63.798 62.8437 64.0824 62.9312C64.4512 63.0406 64.8543 62.8687 64.9887 62.5406C65.098 62.2844 65.0105 61.9031 64.8043 61.7312C64.6449 61.5969 64.3918 61.5187 64.2355 61.5531Z" fill="black"/>
<path d="M14.4572 62.6403C14.176 62.7403 14.0041 62.9559 13.9791 63.2403C13.9572 63.4809 14.0072 63.6278 14.1635 63.7997C14.3166 63.9684 14.5322 64.0466 14.7572 64.0216C15.3697 63.9466 15.6103 63.2247 15.1603 62.8028C14.9447 62.5997 14.7166 62.5466 14.4572 62.6403Z" fill="black"/>
<path d="M62.1098 63.6218C61.6005 63.7468 61.3817 64.3437 61.6973 64.7562C61.9692 65.1093 62.5411 65.1312 62.7973 64.7937C63.1223 64.3656 62.9598 63.7875 62.4661 63.6437C62.288 63.5906 62.2536 63.5875 62.1098 63.6218Z" fill="black"/>
<path d="M37.2404 64.2812C36.9216 64.3812 36.6935 64.6 36.606 64.8937C36.5529 65.075 36.5529 65.1969 36.606 65.3531C36.7122 65.65 36.9185 65.825 37.3966 66.0187C37.806 66.1844 37.906 66.2719 37.906 66.4594C37.906 66.8187 37.4654 66.8844 36.7154 66.6375C36.6747 66.6219 36.6529 66.6719 36.5966 66.8875C36.5622 67.0344 36.531 67.1625 36.531 67.1687C36.531 67.1781 36.6341 67.2187 36.7591 67.2562C36.9466 67.3156 37.0529 67.3281 37.406 67.3281C37.7779 67.3281 37.8497 67.3187 38.0122 67.2531C38.4122 67.0937 38.6466 66.7469 38.6154 66.3562C38.581 65.9187 38.3872 65.725 37.681 65.4375C37.356 65.3062 37.2747 65.225 37.2872 65.0562C37.2935 64.9469 37.3154 64.9125 37.4029 64.8531C37.5404 64.7594 37.8997 64.7531 38.156 64.8437C38.2497 64.875 38.3372 64.8937 38.3466 64.8812C38.356 64.8687 38.3966 64.7469 38.4341 64.6125C38.5154 64.325 38.5216 64.3375 38.2122 64.2656C37.9247 64.2 37.4685 64.2062 37.2404 64.2812Z" fill="black"/>
<path d="M26.9841 64.2873C26.9935 64.3216 27.3185 65.6873 27.6123 66.9435L27.6998 67.3123H28.0779H28.456L28.6498 66.4123C28.756 65.9185 28.8623 65.4091 28.8842 65.281L28.9279 65.0466L28.9654 65.3279C29.0029 65.5935 29.2967 67.1404 29.331 67.256C29.3467 67.306 29.3935 67.3123 29.7154 67.3123H30.0842L30.2279 66.7404C30.3092 66.4279 30.4842 65.7404 30.6217 65.2091L30.8685 64.2498H30.5185H30.1685L30.006 65.0841C29.9185 65.5466 29.8248 66.0529 29.7967 66.2154C29.7717 66.3779 29.7467 66.5123 29.7404 66.5185C29.7342 66.5248 29.7029 66.3654 29.6748 66.1654C29.6435 65.9623 29.5529 65.4529 29.4717 65.031L29.3279 64.2654L28.9623 64.256L28.5998 64.2466L28.5623 64.4123C28.4404 64.9716 28.156 66.4123 28.156 66.4716C28.156 66.6185 28.0998 66.4779 28.0623 66.2341C28.0435 66.0966 27.956 65.606 27.8716 65.1404C27.7873 64.6779 27.7185 64.2873 27.7185 64.2748C27.7185 64.2623 27.5498 64.2498 27.3435 64.2498C27.0591 64.2498 26.9748 64.2591 26.9841 64.2873Z" fill="black"/>
<path d="M31.2411 65.7561C30.9879 66.5873 30.7817 67.2779 30.7817 67.2904C30.7817 67.3029 30.9379 67.3092 31.1317 67.3061L31.4817 67.2967L31.5879 66.9123L31.6942 66.5311H32.1379H32.5786L32.6911 66.9123L32.8067 67.2967L33.1723 67.3061L33.5379 67.3154L33.5161 67.2279C33.5067 67.1811 33.2973 66.4936 33.0504 65.7029L32.6036 64.2654L32.1536 64.2561L31.7004 64.2467L31.2411 65.7561ZM32.1723 64.9248C32.1879 65.0186 32.3817 65.7092 32.4536 65.9342C32.4723 65.9967 32.4661 65.9998 32.1411 65.9998C31.8098 65.9998 31.8067 65.9998 31.8223 65.9279C31.8942 65.6154 32.1129 64.8123 32.1286 64.8123C32.1411 64.8123 32.1598 64.8623 32.1723 64.9248Z" fill="black"/>
<path d="M34.1037 64.2716L33.9693 64.2841V65.7998V67.3123H34.2975H34.6256L34.6318 66.7091L34.6412 66.1091L34.8381 66.1154C35.1787 66.1248 35.2381 66.1966 35.3943 66.781C35.4537 67.0091 35.5162 67.2216 35.535 67.2529C35.5631 67.306 35.6068 67.3123 35.91 67.3123C36.2225 67.3123 36.2537 67.306 36.2381 67.256C36.2287 67.2279 36.185 67.0685 36.1412 66.906C35.9725 66.2935 35.9381 66.1966 35.8475 66.0716C35.7943 65.9998 35.7256 65.9341 35.6912 65.9216C35.5975 65.8935 35.61 65.8685 35.7662 65.7748C36.2381 65.4873 36.2725 64.756 35.8225 64.4466C35.5943 64.2873 35.4881 64.2685 34.8443 64.2623C34.51 64.2591 34.1756 64.2654 34.1037 64.2716ZM35.2506 64.806C35.4506 64.9123 35.5225 65.1654 35.4131 65.3748C35.3256 65.531 35.1693 65.5998 34.8818 65.606L34.6412 65.6091L34.635 65.2029C34.6318 64.981 34.6381 64.7873 34.6443 64.7748C34.6537 64.7591 34.7693 64.7498 34.9006 64.7498C35.0756 64.7498 35.1725 64.7654 35.2506 64.806Z" fill="black"/>
<path d="M39.0317 64.531V64.8123H39.6911C40.2754 64.8123 40.3473 64.8185 40.3317 64.8591C40.3223 64.8873 39.9973 65.3654 39.6098 65.9185L38.9067 66.931V67.1216V67.3123H40.0942H41.2817V67.031V66.7498H40.5629C40.1536 66.7498 39.8442 66.7373 39.8442 66.7216C39.8442 66.706 40.0942 66.331 40.4004 65.8841C40.7067 65.4404 41.0223 64.981 41.1036 64.8623C41.2411 64.6623 41.2504 64.6341 41.2504 64.4498V64.2498H40.1411H39.0317V64.531Z" fill="black"/>
<path d="M42.4533 64.2873C42.4127 64.406 41.7564 66.5529 41.5439 67.256C41.5283 67.306 41.5595 67.3123 41.8845 67.3123H42.2408L42.347 66.9216L42.4502 66.531H42.8939H43.3408L43.3908 66.7091C43.4189 66.8091 43.472 66.9841 43.5064 67.0998L43.5689 67.3123H43.9377H44.3064L44.2345 67.0685C44.1908 66.9373 43.9783 66.2466 43.7595 65.5373L43.3595 64.2498H42.9127C42.5845 64.2498 42.4627 64.2591 42.4533 64.2873ZM43.1127 65.5904C43.172 65.7841 43.2189 65.956 43.2189 65.9716C43.2189 65.9873 43.0689 65.9998 42.8877 65.9998C42.5877 65.9998 42.5595 65.9935 42.5752 65.9435C42.5939 65.8779 42.8002 65.0935 42.8502 64.906L42.8845 64.7654L42.9439 64.9998C42.9783 65.1279 43.0533 65.3935 43.1127 65.5904Z" fill="black"/>
<path d="M44.2254 64.2873C44.2347 64.3092 44.4004 64.9998 44.5941 65.8217L44.9504 67.3154L45.3254 67.3061L45.7035 67.2967L45.8785 66.4998C45.9785 66.0623 46.0816 65.5561 46.1129 65.3748L46.1691 65.0498L46.2535 65.5623C46.3004 65.8467 46.3941 66.3529 46.4597 66.6873L46.5785 67.2967L46.9535 67.3061L47.3285 67.3123L47.7129 65.8217C47.9222 64.9998 48.0972 64.3092 48.0941 64.2873C48.0941 64.2592 48.0035 64.2498 47.7566 64.2498H47.416L47.2722 64.9904C47.191 65.3998 47.0972 65.9092 47.0597 66.1248C47.0254 66.3404 46.991 66.5186 46.9847 66.5248C46.9816 66.5311 46.9597 66.4186 46.941 66.2748C46.9004 65.9998 46.6035 64.3967 46.5754 64.3029C46.5597 64.2561 46.516 64.2498 46.2035 64.2498C45.891 64.2498 45.8472 64.2561 45.8316 64.3029C45.7941 64.4279 45.4066 66.3936 45.4066 66.4592C45.4066 66.4998 45.3941 66.5311 45.3754 66.5311C45.3597 66.5311 45.3441 66.4998 45.3441 66.4592C45.3441 66.4217 45.2566 65.9092 45.1504 65.3186L44.9566 64.2498H44.5847C44.3004 64.2498 44.216 64.2592 44.2254 64.2873Z" fill="black"/>
<path d="M48.9381 64.2661C48.9381 64.2755 48.735 64.9505 48.485 65.763C48.235 66.5786 48.0318 67.2598 48.0318 67.2786C48.0318 67.3036 48.1412 67.313 48.3818 67.3067L48.7318 67.2973L48.8037 67.0317C48.8443 66.8848 48.8912 66.713 48.91 66.6473L48.9412 66.5286L49.385 66.538L49.8256 66.5473L49.9381 66.9223L50.0506 67.2973L50.4162 67.3067C50.6162 67.3098 50.7818 67.3036 50.7818 67.2911C50.7818 67.2786 50.5725 66.5911 50.3162 65.7661L49.8506 64.2661L49.3943 64.2567C49.1443 64.2536 48.9381 64.2567 48.9381 64.2661ZM49.4068 64.863C49.4068 64.9098 49.66 65.8286 49.7037 65.9442C49.7256 65.9942 49.6975 66.0005 49.3912 66.0005C49.06 66.0005 49.0568 66.0005 49.0725 65.9286C49.1506 65.5817 49.3631 64.813 49.3818 64.813C49.3943 64.813 49.4068 64.8348 49.4068 64.863Z" fill="black"/>
<path d="M16.6726 64.5905C16.3382 64.6717 16.1257 64.9436 16.1257 65.2874C16.1288 65.8342 16.6757 66.1655 17.1601 65.9124C17.6038 65.6842 17.6663 65.0717 17.2851 64.7436C17.1038 64.5905 16.8945 64.5374 16.6726 64.5905Z" fill="black"/>
<path d="M59.7292 65.5503C59.5042 65.6472 59.3136 65.9565 59.3136 66.219C59.3136 66.3722 59.4136 66.6003 59.5354 66.7222C59.6792 66.8659 59.9354 66.9534 60.1167 66.919C60.4792 66.8534 60.7511 66.5378 60.7511 66.1847C60.7511 65.944 60.5354 65.644 60.2917 65.5409C60.1636 65.4878 59.8604 65.4909 59.7292 65.5503Z" fill="black"/>
<path d="M19.0069 66.3781C18.7382 66.4281 18.535 66.6188 18.4507 66.8969C18.3569 67.2063 18.5163 67.5531 18.8194 67.7063C18.9569 67.775 19.01 67.7875 19.1913 67.775C19.4694 67.7594 19.635 67.6531 19.76 67.4094C20.035 66.8625 19.5975 66.2656 19.0069 66.3781Z" fill="black"/>
<path d="M57.3757 67.2212C57.2225 67.2837 57.085 67.4181 57.0132 67.5743C56.8194 67.9931 57.0319 68.4681 57.4663 68.5806C57.9257 68.6993 58.36 68.3618 58.3569 67.8837C58.3538 67.4993 58.0632 67.2118 57.66 67.1962C57.5475 67.1899 57.4194 67.2024 57.3757 67.2212Z" fill="black"/>
<path d="M21.3823 67.9811C21.0823 68.0779 20.8761 68.3623 20.8761 68.6686C20.8792 69.1748 21.4167 69.5186 21.8761 69.3092C22.1198 69.1998 22.2511 69.0279 22.2979 68.7592C22.3229 68.6029 22.2542 68.3311 22.1542 68.2092C21.9917 67.9998 21.6417 67.8967 21.3823 67.9811Z" fill="black"/>
<path d="M41.6247 68.1374C41.5747 68.2155 41.531 68.2843 41.531 68.2936C41.531 68.303 41.5997 68.3124 41.681 68.3124C41.8185 68.3124 41.8435 68.2999 41.9841 68.1561L42.1372 67.9999H41.931H41.7216L41.6247 68.1374Z" fill="black"/>
<path d="M34.7131 68.5216L34.5943 68.5341V69.4091V70.281H34.7818H34.9662L34.9756 69.9435L34.985 69.6091L35.0881 69.5998C35.2287 69.5873 35.335 69.6623 35.3725 69.8029C35.3912 69.8685 35.4287 70.0029 35.4568 70.0998L35.5037 70.281H35.7068C35.8162 70.281 35.9068 70.2716 35.9068 70.256C35.9068 70.2435 35.8662 70.0966 35.8162 69.9248C35.7568 69.7216 35.7006 69.5904 35.6475 69.5373L35.5662 69.4591L35.6975 69.3404C35.8287 69.2248 35.8287 69.2248 35.8287 68.9998C35.8287 68.7841 35.8256 68.7748 35.7162 68.6716C35.5475 68.5185 35.2193 68.4685 34.7131 68.5216ZM35.3912 68.8904C35.5756 69.0716 35.385 69.3341 35.0912 69.306L34.985 69.2966L34.9756 69.0966C34.9631 68.8248 34.9693 68.8123 35.1568 68.8123C35.285 68.8123 35.3318 68.8279 35.3912 68.8904Z" fill="black"/>
<path d="M36.4189 68.5597C36.2689 68.6284 36.1689 68.7441 36.122 68.9097C36.0908 69.0097 36.0939 69.0534 36.1377 69.1722C36.2033 69.3378 36.3189 69.4378 36.5627 69.5316C36.8158 69.6316 36.8752 69.6753 36.8752 69.7753C36.8752 69.8941 36.8408 69.9347 36.7158 69.9691C36.6095 70.0003 36.3283 69.9628 36.2127 69.9034C36.172 69.8816 36.1564 69.9034 36.1252 70.0347C36.0783 70.2222 36.0877 70.2316 36.322 70.2816C36.6283 70.3472 36.9033 70.3066 37.0877 70.1691C37.222 70.0659 37.2814 69.9409 37.2814 69.7566C37.2814 69.5191 37.1939 69.4191 36.847 69.2472C36.547 69.1003 36.4814 69.0409 36.5158 68.9409C36.5533 68.8191 36.7345 68.7909 37.0502 68.8597C37.1377 68.8784 37.1502 68.8722 37.1658 68.7909C37.1783 68.7441 37.1939 68.6722 37.2064 68.6347C37.222 68.5784 37.2064 68.5628 37.1033 68.5347C36.9127 68.4816 36.5658 68.4941 36.4189 68.5597Z" fill="black"/>
<path d="M41.3438 68.5653C41.0469 68.6996 40.875 68.9653 40.85 69.3309C40.8157 69.8903 41.1157 70.2684 41.625 70.3027C42.1907 70.3434 42.5625 69.9371 42.525 69.3153C42.5 68.9278 42.3375 68.6778 42.0219 68.5465C41.8563 68.4778 41.5157 68.4871 41.3438 68.5653ZM41.8938 68.8715C42.0407 68.9621 42.1094 69.1309 42.1094 69.4059C42.1094 69.5871 42.0938 69.6684 42.0375 69.7715C41.875 70.0778 41.5157 70.0778 41.3407 69.7684C41.2375 69.5903 41.2375 69.2309 41.3375 69.0403C41.4532 68.8215 41.6907 68.7496 41.8938 68.8715Z" fill="black"/>
<path d="M32.7917 69.1465C32.8073 69.8372 32.8323 69.9528 33.0011 70.1278C33.1355 70.2684 33.3198 70.3247 33.5855 70.3028C33.8698 70.2809 34.023 70.184 34.1417 69.9559C34.2355 69.7715 34.2355 69.7684 34.248 69.1497L34.2573 68.5309H34.0511H33.8448V69.109C33.8448 69.734 33.823 69.8528 33.6855 69.9497C33.5167 70.0684 33.2792 69.9684 33.2198 69.7559C33.2042 69.6934 33.1886 69.3903 33.1886 69.084V68.5309H32.9823H32.7761L32.7917 69.1465Z" fill="black"/>
<path d="M37.4386 68.5435C37.4386 68.5498 37.5573 68.7779 37.7042 69.0466L37.9698 69.5404V69.9091V70.281H38.1729H38.3761V69.9091V69.5404L38.6573 69.0498C38.8136 68.7779 38.9386 68.5529 38.9386 68.5435C38.9386 68.5373 38.8417 68.531 38.7229 68.531H38.5073L38.3573 68.8904C38.2761 69.0873 38.2011 69.2498 38.1917 69.2498C38.1792 69.2498 38.1417 69.1654 38.1011 69.0623C38.0636 68.9591 37.9948 68.7998 37.9542 68.7029L37.8761 68.531H37.6573C37.5386 68.531 37.4386 68.5373 37.4386 68.5435Z" fill="black"/>
<path d="M39.0945 69.4061V70.2811H39.282H39.4695V69.6467V69.0154L39.7163 69.4842C39.8507 69.7404 40.0038 70.0217 40.0538 70.1092L40.1445 70.2654L40.3538 70.2748L40.5632 70.2842V69.4061V68.5311H40.3913H40.2195V69.1311V69.7342L40.1226 69.5311C40.0695 69.4186 39.9288 69.1498 39.8038 68.9279L39.582 68.5311H39.3382H39.0945V69.4061Z" fill="black"/>
<path d="M42.6697 68.5842C42.6947 68.6717 43.0635 70.2373 43.0635 70.2623C43.0635 70.2748 43.1666 70.2811 43.2885 70.2748L43.5166 70.2654L43.6322 69.7498C43.6947 69.4654 43.7478 69.1967 43.7478 69.1467C43.7541 68.9748 43.8041 69.0686 43.8416 69.3186C43.8635 69.4623 43.9135 69.7311 43.951 69.9217L44.0197 70.2654L44.2385 70.2748L44.4572 70.2842L44.6697 69.4467C44.7885 68.9873 44.8916 68.5904 44.901 68.5686C44.9103 68.5404 44.8603 68.5311 44.7103 68.5311H44.5072L44.476 68.6779C44.4385 68.8529 44.2916 69.6373 44.2728 69.7498L44.2635 69.8279L44.2416 69.7498C44.2322 69.7061 44.1791 69.4154 44.1228 69.0998L44.0228 68.5311H43.8103C43.6135 68.5311 43.5947 68.5373 43.5791 68.6029C43.5666 68.6436 43.5072 68.9342 43.4416 69.2529C43.376 69.5779 43.3166 69.7998 43.3072 69.7654C43.2947 69.7311 43.2416 69.4404 43.1853 69.1154L43.0853 68.5311H42.8697C42.6791 68.5311 42.6541 68.5373 42.6697 68.5842Z" fill="black"/>
<path d="M54.9002 68.6996C54.7158 68.7652 54.6283 68.8371 54.5314 68.9902C54.3127 69.334 54.422 69.784 54.772 69.9902C54.9658 70.1027 55.2595 70.1121 55.4564 70.009C56.097 69.6715 55.9002 68.7277 55.1752 68.6684C55.0814 68.659 54.9658 68.6715 54.9002 68.6996Z" fill="black"/>
<path d="M23.9385 69.3592C23.6041 69.4685 23.3978 69.8342 23.4728 70.1873C23.5603 70.5935 23.976 70.8342 24.3791 70.7123C24.5416 70.6654 24.7447 70.4842 24.8166 70.331C24.8885 70.1748 24.8916 69.9123 24.826 69.756C24.6885 69.4248 24.2885 69.2435 23.9385 69.3592Z" fill="black"/>
<path d="M52.2939 69.9497C51.7814 70.1153 51.6158 70.7653 51.9939 71.134C52.4283 71.5559 53.1252 71.3122 53.2064 70.7059C53.272 70.2309 52.7502 69.7997 52.2939 69.9497Z" fill="black"/>
<path d="M26.5939 70.5098C26.3251 70.5973 26.0907 70.991 26.1439 71.2723C26.2282 71.7441 26.7064 72.0223 27.1189 71.8441C27.5782 71.6473 27.7032 71.0941 27.3782 70.716C27.1907 70.4941 26.8939 70.416 26.5939 70.5098Z" fill="black"/>
<path d="M49.5511 70.981C49.3823 71.0435 49.2854 71.1216 49.1729 71.2779C49.0886 71.3997 49.0792 71.4341 49.0792 71.6685C49.0792 71.8966 49.0886 71.9404 49.1667 72.056C49.3667 72.3622 49.7448 72.4622 50.0761 72.2997C50.3573 72.1622 50.4854 71.9372 50.4636 71.6091C50.4542 71.4466 50.4323 71.381 50.3573 71.2747C50.1698 71.0091 49.8198 70.881 49.5511 70.981Z" fill="black"/>
<path d="M29.3254 71.4471C28.9754 71.6158 28.816 72.0314 28.9722 72.3752C29.1035 72.6627 29.3066 72.7939 29.6254 72.7939C30.0504 72.7939 30.3254 72.5189 30.3285 72.0908C30.3285 71.9158 30.316 71.8627 30.2347 71.7346C30.0941 71.5096 29.9285 71.4033 29.6847 71.3846C29.5191 71.3752 29.4566 71.3846 29.3254 71.4471Z" fill="black"/>
<path d="M46.6317 71.8157C46.4036 71.9313 46.2504 72.1907 46.2504 72.4688C46.2504 72.8751 46.5536 73.1657 46.9754 73.1626C47.6098 73.1563 47.9067 72.3938 47.4473 71.9501C47.2348 71.7469 46.8879 71.6907 46.6317 71.8157Z" fill="black"/>
<path d="M32.1728 72.1223C31.7884 72.2973 31.6416 72.7723 31.8572 73.1379C31.9791 73.3442 32.1478 73.4473 32.3916 73.4629C32.6291 73.4786 32.7822 73.4317 32.9259 73.3036C33.3103 72.9661 33.2353 72.3567 32.7791 72.1254C32.6259 72.0442 32.3447 72.0442 32.1728 72.1223Z" fill="black"/>
<path d="M43.9412 72.3155C43.5505 72.3873 43.2974 72.8123 43.4037 73.2123C43.4505 73.378 43.6318 73.5842 43.7974 73.6592C43.9505 73.7311 44.213 73.7342 44.3693 73.6686C44.9255 73.4373 44.9412 72.6373 44.3912 72.3686C44.263 72.303 44.1037 72.2873 43.9412 72.3155Z" fill="black"/>
<path d="M35.1295 72.5153C34.7357 72.6372 34.5326 73.1278 34.717 73.5091C35.0388 74.1778 36.0607 73.9434 36.0638 73.2028C36.0638 72.8809 35.8576 72.6059 35.5451 72.5122C35.367 72.4591 35.3076 72.4591 35.1295 72.5153Z" fill="black"/>
<path d="M40.9602 72.6404C40.7821 72.7092 40.6665 72.8029 40.579 72.9529C40.2258 73.5529 40.8415 74.2498 41.4696 73.9654C41.7571 73.8342 41.8883 73.6311 41.8915 73.3092C41.8915 73.1342 41.879 73.0811 41.7977 72.9498C41.6196 72.6654 41.2508 72.5279 40.9602 72.6404Z" fill="black"/>
<path d="M38.0195 72.7028C37.7508 72.7966 37.5664 73.0747 37.5633 73.3841C37.5633 73.6028 37.6352 73.756 37.8102 73.9153C38.1164 74.1903 38.6195 74.1278 38.8602 73.781C38.932 73.6778 38.9539 73.606 38.9633 73.4497C38.982 73.181 38.9133 73.006 38.7289 72.8435C38.5195 72.6591 38.2758 72.6091 38.0195 72.7028Z" fill="black"/>
</svg>
